<svg width="200" height="200" viewBox="0 0 200 200" fill="none" xmlns="http://www.w3.org/2000/svg">
<path fill-rule="evenodd" clip-rule="evenodd" d="M176.486 8.88179L157.44 19.5958L156.498 20.1249L137.859 30.6162L136.043 31.6353C136.025 31.6442 136.008 31.654 135.991 31.6645L117.814 41.8907L115.151 43.388L97.2932 53.44L93.9033 55.3465C93.8864 55.3541 93.8698 55.3625 93.8536 55.3716L76.2713 65.2688L72.1311 67.5996C72.1167 67.6077 72.1028 67.6163 72.0894 67.6253L54.7341 77.392L49.963 80.0771C49.9398 80.0902 49.9177 80.1046 49.8968 80.12L27.4343 92.7614C27.3516 92.7936 27.2767 92.843 27.2146 92.9063C27.1854 92.9342 27.1584 92.9654 27.1343 92.9998C27.1235 93.0151 27.1135 93.0308 27.1043 93.0467L22.6768 99.152C22.6414 99.1885 22.6099 99.2299 22.5833 99.2761C22.4829 99.4507 22.4762 99.6536 22.5475 99.8264L24.0301 108.903C24.0104 109.096 24.0828 109.289 24.2251 109.422L31.1957 120.79C31.2385 120.924 31.3257 121.042 31.4459 121.121L43.2078 133.859C43.2658 133.957 43.3504 134.039 43.4534 134.094L59.0302 147.254C59.0633 147.292 59.1016 147.326 59.1448 147.356L77.5381 160.128C77.5525 160.138 77.5674 160.147 77.5826 160.156L97.3777 171.561C97.3932 171.57 97.4092 171.578 97.4254 171.586L117.255 180.838C117.293 180.862 117.335 180.882 117.379 180.898L136.043 187.406C136.111 187.43 136.18 187.441 136.249 187.441L152.116 190.584C152.219 190.623 152.33 190.634 152.437 190.617L164.546 190.114C164.632 190.121 164.719 190.109 164.801 190.081C164.847 190.066 164.891 190.046 164.932 190.021L172.095 185.706C172.17 185.673 172.238 185.626 172.296 185.566C172.389 185.474 172.453 185.354 172.475 185.223L173.842 177.132C173.853 177.065 173.853 176.997 173.843 176.931L174.942 126.558C174.942 126.531 174.941 126.505 174.938 126.479L175.472 102.125C175.473 102.119 175.473 102.114 175.473 102.108L175.992 78.2727C175.999 78.2215 176.001 78.1691 175.995 78.1164L176.502 54.8664C176.506 54.8404 176.508 54.8139 176.509 54.787L177.5 9.39365C177.504 9.22442 177.439 9.0635 177.324 8.94508C177.276 8.8944 177.219 8.85096 177.153 8.81758C176.93 8.70453 176.671 8.73787 176.486 8.88179ZM121.117 41.4672L120.142 42.0153L120.222 41.9937L121.117 41.4672ZM116.14 44.3954L100.433 53.6359L98.6837 54.0917L115.696 44.5157L116.14 44.3954ZM94.3962 56.5006L76.7717 66.4216L80.1286 65.5833L96.4929 55.9543L94.3962 56.5006ZM100.811 54.8636L82.3685 65.7157L91.7464 66.5678L108.106 55.4333L100.811 54.8636ZM110.039 55.6298L119.941 58.3808L105.973 70.6066L93.3661 66.9776L110.039 55.6298ZM90.1196 67.6752L73.163 79.2168L61.5142 77.9926L80.5264 66.8035L90.1196 67.6752ZM76.3374 67.8184L59.3353 77.8245L54.4476 78.9875L72.6658 68.7352L76.3374 67.8184ZM50.5096 81.2095L31.6988 91.7958L37.988 90.3823L55.6653 79.9827L50.5096 81.2095ZM59.7008 79.0589L40.1267 90.5744L54.0215 92.2462L71.5635 80.3056L59.7008 79.0589ZM73.4331 80.545L55.5904 92.6904L74.1712 98.4431L89.2334 85.2582L73.4331 80.545ZM90.609 85.7153L108.55 93.6502L96.6712 108.478L75.4703 98.9672L90.609 85.7153ZM73.8987 99.6673L94.1941 137.749L56.0915 94.1541L73.8987 99.6673ZM53.8458 93.4841L90.8897 135.867L40.134 91.8343L53.8458 93.4841ZM38.0211 91.6561L29.1486 93.6501L87.6662 134.726L38.0211 91.6561ZM85.5869 134.793L27.7932 94.226L24.0444 99.3954L85.5869 134.793ZM23.9724 100.796L25.2386 108.547L85.2774 136.057L23.9724 100.796ZM86.7427 138.104L26.2944 110.406L32.2309 120.087L86.7427 138.104ZM33.9251 121.963L44.0819 132.963L89.6064 140.367L33.9251 121.963ZM92.8254 142.157L45.9008 134.525L59.7014 146.184L92.8254 142.157ZM61.2 147.261L77.8456 158.82L95.4056 143.102L61.2 147.261ZM96.6929 143.627L78.955 159.504L97.0498 169.929L96.6929 143.627ZM98.3093 170.619L116.149 178.943L97.9592 144.818L98.3093 170.619ZM100.383 146.708L118.021 179.798L134.249 185.457L100.383 146.708ZM136.589 186.234L150.138 188.918L103.815 148.734L136.589 186.234ZM106.888 149.745L152.556 189.361L162.72 188.939L106.888 149.745ZM164.624 188.748L170.607 185.143L109.049 149.735L164.624 188.748ZM109.302 148.439L171.388 184.151L172.527 177.413L109.302 148.439ZM172.001 175.797L167.785 166.208L107.848 146.397L172.001 175.797ZM104.981 144.133L166.409 164.437L156.683 152.541L104.981 144.133ZM157.667 151.769L167.7 164.041L168.934 141.73L160.539 131.169L157.667 151.769ZM159.458 129.876L156.551 150.722L141.009 136.817L146.407 117.989L159.458 129.876ZM160.778 129.459L169.033 139.846L170.231 118.213L163.55 109.575L160.778 129.459ZM163.783 107.833L170.336 116.306L171.497 95.326L166.46 88.6482L163.783 107.833ZM166.705 86.8966L169.292 68.352L172.73 73.0261L171.604 93.3921L166.705 86.8966ZM172.765 95.0369L173.826 75.8396L174.741 78.2761L174.291 98.9532L172.765 95.0369ZM174.22 102.214L172.598 98.0518L171.499 117.91L173.754 123.485L174.22 102.214ZM173.689 126.659L171.337 120.842L170.198 141.418L173.21 148.572L173.689 126.659ZM173.143 151.634L170.045 144.275L168.867 165.564L172.653 174.173L173.143 151.634ZM174.814 74.9159L175.251 54.8765L175.021 54.2417L173.997 72.7404L174.814 74.9159ZM172.838 71.064L173.931 51.3257L172.035 48.6902L169.54 66.5786L172.838 71.064ZM168.435 65.4462L170.969 47.2833L167.601 44.0105L162.96 60.206L168.435 65.4462ZM161.901 59.3616L166.568 43.0795L162.139 39.8042L154.848 54.1792L161.901 59.3616ZM154.275 55.3092L161.534 60.643L156.692 77.5443L146.696 70.2548L154.275 55.3092ZM153.791 53.5006L161.09 39.1099L156.125 36.277L145.925 49.0063L153.791 53.5006ZM145.133 49.9938L153.225 54.6168L145.638 69.5775L134.531 63.2263L145.133 49.9938ZM144.788 48.4253L154.966 35.725L150.069 33.6699L136.994 45.1162L144.788 48.4253ZM135.672 44.6116L148.649 33.2515L144.494 32.1767L128.895 42.796L135.672 44.6116ZM127.531 43.7246L111.393 54.7085L121.066 57.3961L134.54 45.6024L127.531 43.7246ZM125.567 43.5497L109.759 54.3085L102.693 53.7567L120.598 43.2228L125.567 43.5497ZM127.245 42.4074L122.512 42.096L139.863 31.8848L142.494 32.0256L127.245 42.4074ZM145.868 31.2411L160.99 20.9498L162.321 21.2833L149.788 32.2548L145.868 31.2411ZM163.751 21.6926L165.595 22.4583L155.779 34.7105L151.116 32.7536L163.751 21.6926ZM156.917 35.2894L161.656 37.9937L168.696 24.1126L166.757 23.0069L156.917 35.2894ZM167.548 22.0192L169.262 22.9965L173.566 14.5093L167.548 22.0192ZM174.479 15.4733L170.319 23.6769L171.809 24.7876L174.479 15.4733ZM171.441 26.0723L166.935 41.7966L162.713 38.6736L169.745 24.8082L171.441 26.0723ZM172.472 27.0114L173.634 28.1564L171.183 45.7483L167.992 42.6473L172.472 27.0114ZM172.285 46.8972L174.036 49.3315L175.098 30.175L174.695 29.6029L172.285 46.8972ZM174.94 27.7787L175.209 28.1613L175.422 24.3258L174.94 27.7787ZM168.731 15.6749L163.465 20.2814L162.363 20.0053L168.731 15.6749ZM158.959 20.82L144.199 30.865L141.8 30.7367L158.675 20.8079L158.959 20.82ZM171.971 14.501L164.8 20.7747L166.409 21.4427L171.971 14.501ZM175.029 18.0891L172.864 25.643L173.841 26.6056L175.029 18.0891ZM175.436 46.6746L175.193 51.047L175.332 51.429L175.436 46.6746ZM135.949 46.0307L122.381 57.9064L133.396 62.6432L143.976 49.4385L135.949 46.0307ZM132.585 63.6552L121.338 58.8188L107.283 71.1219L121.601 77.3649L132.585 63.6552ZM120.792 78.3755L109.359 92.6411L91.6464 84.8073L106.243 72.0322L120.792 78.3755ZM104.855 71.5854L90.3448 84.2853L74.7656 79.6381L92.0229 67.8917L104.855 71.5854ZM110.491 93.2278L121.944 78.9366L136.624 87.3418L128.425 103.507L110.491 93.2278ZM109.7 94.2151L127.859 104.624L119.335 121.428L97.8004 109.068L109.7 94.2151ZM96.234 109.652L75.7356 100.456L96.6394 139.679L96.234 109.652ZM101.726 142.338L154.984 150.998L140.093 137.675L101.726 142.338ZM139.942 136L145.361 117.101L128.913 105.309L120.395 122.101L139.942 136ZM119.64 123.098L138.621 136.595L99.2043 141.385L119.64 123.098ZM118.534 122.41L97.4933 110.333L97.9055 140.87L118.534 122.41ZM129.485 104.181L145.726 115.825L150.941 97.6189L137.678 88.0286L129.485 104.181ZM138.25 86.9L151.308 96.341L156.325 78.8241L146.123 71.3841L138.25 86.9ZM145.071 70.6937L137.191 86.2256L122.735 77.9492L133.739 64.2137L145.071 70.6937ZM157.364 79.7354L165.387 87.2969L162.676 106.722L152.37 97.1705L157.364 79.7354ZM157.752 78.3828L165.598 85.7788L168.222 66.9726L162.571 61.5638L157.752 78.3828ZM151.984 98.5173L162.474 108.239L159.667 128.376L146.791 116.648L151.984 98.5173Z" fill="#1C28FF"/>
</svg>
