<svg width="200" height="200" viewBox="0 0 200 200" fill="none" xmlns="http://www.w3.org/2000/svg">
<path fill-rule="evenodd" clip-rule="evenodd" d="M146.483 33.7722L138.501 35.2553C138.495 35.2564 138.49 35.2575 138.484 35.2587L129.559 37.1717L129.414 37.1986C129.409 37.1996 129.403 37.2008 129.397 37.202L120.102 39.1926C120.083 39.1968 120.064 39.2019 120.045 39.2078L110.573 41.2343C110.549 41.2396 110.525 41.2462 110.502 41.2541L100.908 43.3083L100.864 43.3164C100.844 43.3202 100.824 43.3249 100.805 43.3304L90.8244 45.4673C90.7913 45.4744 90.7593 45.484 90.7287 45.4959L81.2215 47.5318L80.6144 47.6441C80.5584 47.6545 80.5055 47.672 80.4566 47.6956L70.074 49.919L59.2986 52.2268L48.2381 54.593C48.1941 54.6024 48.1523 54.6162 48.1129 54.6339L45.7636 55.1363C45.6433 55.162 45.5386 55.2207 45.4569 55.3009L37.1682 56.9531L36.9167 56.9996C36.8526 57.0115 36.7927 57.0327 36.7379 57.0617L28.4318 60.3808C28.3938 60.396 28.3574 60.4149 28.323 60.4372L20.7422 65.3665C20.7086 65.3883 20.6772 65.4134 20.6483 65.4413L14.1132 71.7638C14.0991 71.7753 14.0853 71.7875 14.072 71.8004C14.0225 71.8485 13.9826 71.9028 13.9525 71.9608L8.67133 79.4316C8.64962 79.4623 8.63073 79.4949 8.61488 79.5291L4.65629 88.0496C4.64101 88.0825 4.62862 88.1167 4.61926 88.1517L2.15934 97.365C2.15026 97.399 2.14406 97.4337 2.14083 97.4688L1.25265 107.09C1.2495 107.125 1.24916 107.159 1.25164 107.193L1.95706 116.92C1.95951 116.954 1.96468 116.988 1.97254 117.02L4.21441 126.403C4.21249 126.473 4.22242 126.545 4.24556 126.615C4.26895 126.687 4.30389 126.751 4.34763 126.806L8.04245 135.651C8.05557 135.694 8.07359 135.736 8.09672 135.777C8.11735 135.814 8.14109 135.847 8.16743 135.878L13.2125 143.967C13.2374 144.03 13.2732 144.091 13.3201 144.145C13.3518 144.182 13.3867 144.214 13.4242 144.242L19.704 151.363C19.7131 151.374 19.7226 151.384 19.7324 151.394C19.7506 151.412 19.7701 151.43 19.791 151.446C19.7996 151.453 19.8083 151.46 19.8172 151.466L27.1313 157.366C27.1775 157.416 27.2326 157.459 27.2959 157.492C27.3228 157.507 27.3502 157.519 27.378 157.529L35.403 161.951C35.4651 162.005 35.5389 162.048 35.6222 162.075C35.6678 162.089 35.7139 162.098 35.7597 162.102L44.1984 164.921C44.2751 164.973 44.3646 165.009 44.4626 165.023C44.5181 165.03 44.5729 165.031 44.6259 165.024L53.365 166.209C53.4397 166.237 53.5212 166.252 53.6062 166.25C53.6575 166.248 53.7072 166.241 53.7545 166.228L62.5178 165.718C62.5873 165.729 62.6599 165.728 62.7329 165.713C62.7844 165.703 62.8331 165.687 62.8786 165.666L71.3629 163.457C71.4254 163.455 71.4887 163.444 71.5509 163.422L82.3984 159.642C82.4195 159.637 82.4406 159.631 82.4616 159.623L93.0152 155.945C93.0429 155.94 93.0706 155.932 93.0981 155.923L103.461 152.313C103.483 152.305 103.506 152.296 103.528 152.285L103.559 152.27L123.4 145.357C123.413 145.352 123.426 145.347 123.439 145.342C123.448 145.338 123.457 145.334 123.466 145.329L123.485 145.32L133.031 141.992C133.042 141.988 133.052 141.984 133.062 141.98C133.074 141.975 133.086 141.97 133.097 141.964L133.128 141.949L142.327 138.744C142.378 138.734 142.428 138.717 142.476 138.694L142.489 138.688L151.465 135.56C151.498 135.554 151.53 135.546 151.563 135.535L169.228 129.38C169.251 129.372 169.273 129.363 169.294 129.353L176.67 125.795C176.706 125.777 176.741 125.756 176.773 125.733L183.385 120.796C183.412 120.775 183.437 120.753 183.461 120.729C183.466 120.724 183.471 120.718 183.476 120.713L189.105 114.551C189.15 114.501 189.186 114.446 189.213 114.388L193.627 107.266C193.667 107.201 193.693 107.133 193.708 107.063L196.799 99.1799C196.805 99.1642 196.811 99.1482 196.815 99.132C196.821 99.1129 196.826 99.0935 196.83 99.0739L198.53 90.5461C198.537 90.5106 198.541 90.4746 198.542 90.4385L198.745 81.7066C198.756 81.6236 198.75 81.5372 198.725 81.4518L197.456 72.8939C197.457 72.833 197.45 72.7708 197.432 72.7092C197.419 72.6633 197.402 72.6201 197.38 72.5799L194.658 64.2739C194.647 64.2405 194.633 64.208 194.617 64.1768L190.49 56.3563C190.474 56.3248 190.454 56.2948 190.433 56.2666L185.074 49.3102C185.052 49.2816 185.028 49.2549 185.001 49.2306L178.593 43.3643C178.531 43.3074 178.459 43.2645 178.382 43.2369L171.295 38.7497C171.24 38.7086 171.178 38.6765 171.113 38.6552L163.383 35.5424C163.328 35.5117 163.267 35.4888 163.202 35.4757L155.109 33.8555C155.045 33.8326 154.976 33.8199 154.904 33.8193L146.681 33.7502C146.67 33.7499 146.659 33.7498 146.648 33.75C146.606 33.7503 146.563 33.755 146.522 33.7639L146.483 33.7722ZM149.324 35.0224L146.717 35.0005L143.277 35.7389L145.915 35.762L149.324 35.0224ZM140.377 36.9635L137.714 36.9402L134.105 37.7137L136.806 37.7383L140.377 36.9635ZM139.904 38.3451L145.983 37.0263L151.218 38.0781L145.191 39.4127L139.904 38.3451ZM131.276 38.938L128.511 38.9128L124.596 39.7518L127.398 39.7795L131.276 38.938ZM130.517 40.3818L136.86 39.0056L142.179 40.0798L135.896 41.4712L130.517 40.3818ZM121.887 40.9751L119.057 40.9472L115.013 41.8143L117.884 41.8436L121.887 40.9751ZM120.971 42.453L127.477 41.0414L132.888 42.1373L126.439 43.5657L120.971 42.453ZM112.382 43.0375L109.448 43.0076L105.026 43.9557L108.005 43.9871L112.382 43.0375ZM102.509 45.1793L99.4691 45.1473L94.94 46.1189L98.0168 46.1535C98.0173 46.1535 98.0179 46.1535 98.0184 46.1535L102.509 45.1793ZM92.54 47.342L89.4029 47.3067L84.4222 48.3751L87.6023 48.4131L92.54 47.342ZM82.139 49.5979L78.8958 49.5591L78.8233 49.5725L73.6624 50.6799L76.9631 50.7203L82.139 49.5979ZM71.5065 51.9036L68.2094 51.8632L62.8838 53.005L66.2105 53.048C66.2161 53.048 66.2218 53.0482 66.2274 53.0484L71.5065 51.9036ZM69.257 53.6705L77.054 51.9797L82.9556 53.2021L75.2278 54.9136L69.257 53.6705ZM60.7879 54.228L57.3842 54.184L57.3088 54.2002C57.303 54.2014 57.2972 54.2026 57.2914 54.2037L56.1606 54.4127L51.6385 55.3822L55.0342 55.4757L60.7879 54.228ZM58.0701 56.0964L66.2532 54.3219L72.2562 55.5717L64.1476 57.3675L58.0701 56.0964ZM54.3661 56.7078L46.5904 56.4937L48.8694 76.9458L49.742 76.9618L50.0762 76.969L50.0783 76.969L53.2536 77.0268L54.3661 56.7078ZM52.3053 78.2598L50.2393 78.2222C50.2288 78.2253 50.2181 78.2281 50.2074 78.2307L49.3336 78.4409L47.978 79.3107L52.3053 78.2598ZM44.3035 80.1832L45.6305 79.3318L38.0133 81.1643L36.6484 82.0418L44.3035 80.1832ZM33.5052 84.0913L42.4868 81.9106L40.3179 83.9825L31.3047 86.2002L33.5052 84.0913ZM33.3566 82.6721L21.9426 66.077L28.3899 61.8847L37.0173 80.3186L33.3566 82.6721ZM47.6236 77.0533L45.3567 56.709L37.8024 58.1069L43.354 77.8198L47.6236 77.0533ZM42.1526 78.1651L38.1305 79.7481L29.4969 61.3013L36.6036 58.4614L42.1526 78.1651ZM20.9703 66.869L32.3718 83.4461L29.1965 86.4892L15.3933 72.2646L20.9703 66.869ZM14.587 73.2286L10.036 79.6667L25.7682 91.0856L28.3722 87.4347L14.587 73.2286ZM29.5646 87.9156L27.3954 90.9569L36.9848 88.5572L39.127 85.5628L29.5646 87.9156ZM40.9923 85.1039L38.8721 88.0675L48.1437 85.7466L50.2373 82.8291L40.9923 85.1039ZM52.0939 82.3859L50.0192 85.2771L59.0036 83.0281L61.0256 80.2174L60.9834 80.1997L52.0939 82.3859ZM62.2083 80.7139L64.2257 81.5616C64.2668 81.593 64.3125 81.6197 64.3624 81.6408C64.3804 81.6484 64.3986 81.6551 64.4169 81.6609L64.4303 81.6696L60.8817 82.5579L62.2083 80.7139ZM58.2433 84.507L48.9528 86.8326L47.2531 90.4337L56.5614 88.0539L58.2433 84.507ZM58.1357 87.6514L59.8131 84.114L65.8557 82.6014L67.8428 83.9005L67.1549 85.3455L58.1357 87.6514ZM56.1148 89.4583L46.6283 91.8836L45.5214 95.9484L55.0183 93.466L56.1148 89.4583ZM56.414 93.1012L57.5082 89.102L66.7112 86.7492L65.6269 90.693L56.414 93.1012ZM54.8147 94.8112L45.2115 97.3214L44.7862 101.732L54.3929 99.1586L54.8147 94.8112ZM55.6823 98.8133L56.1032 94.4744L65.426 92.0375L65.0058 96.316L55.6823 98.8133ZM54.4033 100.45L44.7372 103.039L45.0528 107.541L54.7126 104.888L54.4033 100.45ZM55.9422 104.551L55.6334 100.12L65.0192 97.6065L65.3219 101.975L55.9422 104.551ZM54.9127 106.13L45.2294 108.789L46.2897 113.233L55.9563 110.51L54.9127 106.13ZM57.1604 110.171L56.1188 105.798L65.5256 103.215L66.551 107.525L57.1604 110.171ZM56.3387 111.701L46.6801 114.422L48.4488 118.643L58.0844 115.864L56.3387 111.701ZM59.2935 115.515L57.5509 111.36L66.9372 108.715L68.6567 112.812L59.2935 115.515ZM69.2304 113.948L59.9033 116.64L62.2573 120.385L71.5546 117.638L69.2304 113.948ZM72.8001 117.27L70.4804 113.587L79.5358 110.973L81.8267 114.602L72.8001 117.27ZM72.3251 118.713L63.103 121.438L65.947 124.627L75.132 121.856L72.3251 118.713ZM76.4522 121.457L73.6512 118.321L82.3058 115.764L82.3012 116.108C82.2962 116.137 82.2934 116.167 82.2926 116.196L81.5998 119.904L76.4522 121.457ZM76.1204 122.863L67.0657 125.595L70.2719 128.145L79.2847 125.374L76.1204 122.863ZM79.446 126.632L71.748 128.999L75.0637 130.793L77.5563 130.015L79.1975 127.271C79.2069 127.25 79.2175 127.229 79.2296 127.208L79.446 126.632ZM79.9901 128.381L78.5897 130.722C78.5604 130.814 78.51 130.899 78.4423 130.969L77.6393 132.311C77.6383 132.314 77.6373 132.317 77.6363 132.321L92.8068 145.488L96.9902 138.559L79.9901 128.381ZM98.2754 138.849L94.3781 145.304L103.233 142.315L107.091 135.942L98.2754 138.849ZM108.916 135.34L105.073 141.69L113.646 138.795L117.453 132.525L108.916 135.34ZM118.387 130.901L109.547 133.816L112.358 126.426L121.173 123.606L118.387 130.901ZM119.281 131.922L115.485 138.173L123.82 135.358L127.581 129.185L119.281 131.922ZM128.513 127.562L119.918 130.396L122.697 123.118L131.268 120.375L128.513 127.562ZM129.413 128.581L125.663 134.736L133.711 132.018L137.423 125.94L129.413 128.581ZM138.366 124.313L130.046 127.056L132.794 119.887L141.089 117.232L138.366 124.313ZM139.257 125.335L135.556 131.394L143.358 128.759L147.023 122.774L139.257 125.335ZM148.85 122.184L145.198 128.147L152.779 125.586L156.393 119.697L148.85 122.184ZM157.343 118.068L149.497 120.655L152.188 113.68L160.013 111.176L157.343 118.068ZM158.231 119.091L154.629 124.961L161.949 122.488L165.519 116.688L158.231 119.091ZM166.47 115.058L158.88 117.561L161.543 110.686L169.109 108.265L166.47 115.058ZM167.36 116.081L163.796 121.872L170.903 119.473L174.431 113.749L167.36 116.081ZM175.387 112.118L168.008 114.551L170.641 107.775L177.998 105.42L175.387 112.118ZM176.275 113.141L172.757 118.847L179.673 116.512L183.16 110.871L176.275 113.141ZM184.114 109.24L176.926 111.61L179.531 104.93L186.695 102.637L184.114 109.24ZM185.006 110.262L181.545 115.861L188.227 113.606L191.659 108.068L185.006 110.262ZM192.61 106.438L185.655 108.732L188.229 102.146L195.163 99.927L192.61 106.438ZM195.68 98.4492L197.102 91.3151L189.998 93.5083L188.567 100.726L195.68 98.4492ZM187.206 101.161L188.641 93.9274L181.314 96.1893L179.871 103.509L187.206 101.161ZM178.511 103.944L179.958 96.6082L172.438 98.9299L170.978 106.354L178.511 103.944ZM169.618 106.789L171.081 99.3486L163.353 101.735L161.881 109.266L169.618 106.789ZM160.522 109.7L161.998 102.153L154.016 104.618L152.527 112.259L160.522 109.7ZM151.169 112.694L152.661 105.036L144.455 107.569L142.954 115.323L151.169 112.694ZM142.617 116.743L139.899 123.807L147.967 121.147L150.659 114.169L142.617 116.743ZM141.596 115.757L143.101 107.987L134.638 110.6L133.124 118.468L141.596 115.757ZM131.768 118.903L133.285 111.018L124.561 113.711L123.031 121.699L131.768 118.903ZM121.675 122.132L123.208 114.129L114.231 116.901L112.688 125.009L121.675 122.132ZM111.333 125.442L112.879 117.318L103.631 120.173L102.072 128.406L111.333 125.442ZM100.787 128.471L82.5462 121.645L82.7405 120.605C82.7643 120.54 82.7775 120.471 82.7787 120.401L83.4265 116.934L102.355 120.194L100.787 128.471ZM103.723 118.837L113.066 115.952L113.215 107.451L103.865 110.223L103.723 118.837ZM102.612 110.391L102.471 118.945L83.5569 115.688L83.5628 115.242C83.5742 115.175 83.5748 115.107 83.5644 115.04V115.021C83.5739 114.961 83.5746 114.899 83.5656 114.836L83.6314 110.814L102.612 110.391ZM103.755 108.952L113.153 106.166L111.864 97.629L102.443 100.301L103.755 108.952ZM101.225 100.604L102.52 109.142L83.55 109.566L83.5171 109.352C83.517 109.296 83.509 109.238 83.4924 109.18C83.4913 109.176 83.4901 109.172 83.4889 109.169L82.8077 104.696L101.225 100.604ZM102.148 99.0854L111.577 96.411L108.889 88.1801L99.4236 90.7429L102.148 99.0854ZM98.2458 91.163L100.932 99.3888L82.5223 103.479L80.9932 98.791L98.2458 91.163ZM98.9456 89.5773L108.384 87.0219L104.398 79.3945L94.9081 81.8467L98.9456 89.5773ZM93.7668 82.3616L97.7616 90.0104L80.5069 97.6393L78.2325 93.271L93.7668 82.3616ZM94.2353 80.7294L103.656 78.2953L98.549 71.5698L89.0666 73.9097L94.2353 80.7294ZM87.9407 74.4936L93.1008 81.3019L77.5597 92.2161L74.9046 88.6998C74.8924 88.6817 74.8794 88.6644 74.8655 88.6478L74.6254 88.3286L87.9407 74.4936ZM88.1718 72.843L97.5257 70.5348L91.5489 64.9648L82.1256 67.1946L88.1718 72.843ZM80.9868 66.1796L90.159 64.0092L83.6474 59.7952L74.3999 61.9038L80.9868 66.1796ZM72.8784 60.9686L81.7571 58.9442L75.1542 56.2102L66.2027 58.1927L72.8784 60.9686ZM63.3427 58.4762L55.6097 56.8589L54.4981 77.1604L55.7379 77.4304C55.7646 77.4326 55.7912 77.4365 55.8175 77.4422L58.8692 78.0964L63.3427 58.4762ZM60.0683 78.4602L64.2794 80.2283L71.9826 61.9498L64.5386 58.8544L60.0683 78.4602ZM65.3927 80.8054L73.0891 62.5431L79.9956 67.0265L69.3064 83.3639L65.3927 80.8054ZM69.0198 84.6699C69.0535 84.7061 69.092 84.7388 69.1353 84.7671C69.1496 84.7765 69.1642 84.7852 69.1789 84.7932L69.2081 84.8206L68.7311 84.9426L68.8986 84.5907L69.0198 84.6699ZM68.1055 86.3927L67.0237 90.3279L73.3035 88.6865C73.288 88.6673 73.2739 88.6474 73.261 88.6269L70.2879 85.8347L68.1055 86.3927ZM73.7825 87.4018L70.2989 84.1302L80.9678 67.8237L87.1062 73.5581L73.7825 87.4018ZM74.1389 89.7601L66.7151 91.7006L66.2957 95.9705L75.3785 93.5377L75.5661 91.6503L74.1389 89.7601ZM76.6762 93.1204L76.6691 93.1921L76.72 93.1784L76.6762 93.1204ZM77.3596 94.3012L76.6172 94.5L76.9125 98.7923L79.3495 98.1231L77.3596 94.3012ZM79.8395 99.2849L77.0879 100.04L78.0936 104.274L81.1827 103.403L79.8395 99.2849ZM81.5293 104.604L78.4838 105.462L80.1747 109.487L82.1847 108.907L81.5293 104.604ZM82.3756 110.153L80.7862 110.612L82.3441 113.08L82.3903 110.261C82.3895 110.253 82.3889 110.245 82.3885 110.237L82.3756 110.153ZM78.9655 109.837L69.8659 112.463L68.1495 108.374L77.2715 105.804L78.9655 109.837ZM76.8894 104.613L75.8818 100.372L66.7317 102.884L67.7552 107.186L76.8894 104.613ZM66.5515 101.637L75.6828 99.13L75.3869 94.8296L66.2494 97.277L66.5515 101.637ZM58.9944 79.4017L53.8071 80.6774L55.8525 78.7281L58.9944 79.4017ZM53.4822 79.2603L44.8852 81.3482L42.7553 83.3828L51.3842 81.2597L53.4822 79.2603ZM77.283 55.7387L83.8353 58.4517L92.361 56.5074L85.8857 53.8334L77.283 55.7387ZM88.0174 53.3613L94.4708 56.0262L102.772 54.133L96.389 51.5072L88.0174 53.3613ZM98.5188 51.0317L104.886 53.6509L112.967 51.8081L106.671 49.2256L98.5188 51.0317ZM103.745 48.5934L98.0524 47.4252L90.6839 49.0237L96.4407 50.2118L103.745 48.5934ZM106.735 47.9309L101.075 46.7695L108.073 45.2515L113.667 46.3951L106.735 47.9309ZM108.809 48.7518L115.083 51.3253L122.822 49.5605L116.614 47.0226L108.809 48.7518ZM118.755 46.5475L124.973 49.0893L132.532 47.3653L126.383 44.8584L118.755 46.5475ZM123.437 44.2304L117.937 43.1112L111.1 44.5946L116.661 45.7311L123.437 44.2304ZM128.528 44.3832L134.656 46.8811L141.913 45.2261L135.85 42.7618L128.528 44.3832ZM137.999 42.2859L144.045 44.7435L151.123 43.1298L145.137 40.705L137.999 42.2859ZM147.289 40.2283L153.253 42.6441L160.087 41.0861L154.186 38.7011L147.289 40.2283ZM156.341 38.2239L162.207 40.5946L168.832 39.0843L163.022 36.7443L156.341 38.2239ZM160.056 36.1207L154.908 35.09L149.034 36.3643L154.237 37.4095L160.056 36.1207ZM170.802 39.9174L163.751 41.5247L169.575 45.217L176.562 43.5639L170.802 39.9174ZM177.993 44.5096L170.759 46.2215L176.142 51.1579L183.32 49.3866L177.993 44.5096ZM184.351 50.4198L188.864 56.2781L181.606 58.1533L177.043 52.2231L184.351 50.4198ZM174.685 51.5175L169.289 46.5694L161.863 48.3266L167.314 53.3363L174.685 51.5175ZM168.212 54.4024L175.718 52.5501L180.291 58.4933L172.834 60.4199L168.212 54.4024ZM165.858 53.6957L160.394 48.6743L152.744 50.4843L158.269 55.5685L165.858 53.6957ZM159.167 56.6344L166.887 54.7293L171.519 60.7598L163.85 62.7413L159.167 56.6344ZM156.813 55.9277L151.276 50.8317L143.428 52.6887L149.024 57.8496L156.813 55.9277ZM149.92 58.9162L157.842 56.9613L162.536 63.081L154.667 65.1143L149.92 58.9162ZM147.57 58.2086L141.961 53.0359L133.858 54.9532L139.528 60.1929L147.57 58.2086ZM140.42 61.2604L148.595 59.243L153.352 65.4539L145.23 67.5527L140.42 61.2604ZM138.075 60.5516L132.392 55.3002L124.043 57.2759L129.788 62.5964L138.075 60.5516ZM130.679 63.6641L139.096 61.5871L143.916 67.8922L135.555 70.0528L130.679 63.6641ZM128.336 62.9548L122.577 57.6227L113.942 59.6659L119.766 65.0695L128.336 62.9548ZM120.66 66.1363L129.356 63.9906L134.241 70.3922L125.603 72.6241L120.66 66.1363ZM118.315 65.4277L112.478 60.0124L103.618 62.109L109.519 67.5981L118.315 65.4277ZM108.049 67.9381L102.155 62.4552L93.0111 64.6188L98.9753 70.1771L108.049 67.9381ZM99.8708 71.2437L104.968 77.9563L114.111 75.5938L109.076 68.9722L99.8708 71.2437ZM110.413 68.6651L119.338 66.4627L124.29 72.9634L115.423 75.2547L110.413 68.6651ZM114.852 76.6932L118.784 84.2061L109.619 86.6874L105.641 79.0734L114.852 76.6932ZM110.097 87.853L112.78 96.0696L121.939 93.472L119.288 85.3646L110.097 87.853ZM120.496 85.0375L123.142 93.1306L132.033 90.6089L129.422 82.6209L120.496 85.0375ZM130.63 82.2938L133.237 90.2676L141.886 87.8142L139.312 79.9431L130.63 82.2938ZM138.808 78.7846L130.15 81.1286L126.279 73.7406L134.984 71.4912L138.808 78.7846ZM140.52 79.616L143.09 87.4728L151.475 85.0945L148.938 77.337L140.52 79.616ZM148.434 76.1784L140.044 78.45L136.227 71.17L144.66 68.991L148.434 76.1784ZM150.146 77.0099L152.679 84.7531L160.832 82.4407L158.331 74.7938L150.146 77.0099ZM157.824 73.6359L149.67 75.8437L145.903 68.6698L154.1 66.5519L157.824 73.6359ZM159.539 74.4667L162.035 82.0994L169.935 79.8587L167.467 72.3201L159.539 74.4667ZM166.959 71.1626L159.061 73.3012L155.343 66.2306L163.285 64.1784L166.959 71.1626ZM168.675 71.993L171.138 79.5173L178.837 77.3338L176.402 69.9009L168.675 71.993ZM177.611 69.5738L180.04 76.9924L187.532 74.8675L185.134 67.5363L177.611 69.5738ZM186.342 67.2091L188.736 74.5261L196.025 72.4588L193.655 65.2284L186.342 67.2091ZM193.148 64.0709L185.86 66.0444L182.287 59.2684L189.614 57.3751L193.148 64.0709ZM181.043 59.5898L184.624 66.3793L177.131 68.4085L173.512 61.5358L181.043 59.5898ZM172.269 61.8571L175.895 68.7433L168.196 70.8279L164.529 63.8571L172.269 61.8571ZM196.309 73.6775L189.032 75.7415L190.161 83.3356L197.422 81.1829L196.309 73.6775ZM197.477 82.4703L190.268 84.6077L190.096 92.1697L197.303 89.9448L197.477 82.4703ZM188.837 92.5584L189.009 84.9808L181.586 87.1814L181.415 94.8501L188.837 92.5584ZM180.156 95.2388L180.328 87.5545L172.705 89.8145L172.536 97.5914L180.156 95.2388ZM171.277 97.98L171.446 90.1875L163.618 92.5084L163.452 100.396L171.277 97.98ZM162.194 100.784L162.36 92.8814L154.279 95.2771L154.116 103.278L162.194 100.784ZM152.858 103.667L153.021 95.65L144.71 98.1139L144.553 106.231L152.858 103.667ZM143.295 106.619L143.453 98.4866L134.886 101.026L134.732 109.263L143.295 106.619ZM133.474 109.651L133.629 101.399L124.808 104.014L124.657 112.374L133.474 109.651ZM123.4 112.762L123.552 104.387L114.472 107.078L114.323 115.564L123.4 112.762ZM114.363 105.807L123.492 103.101L122.224 94.6905L113.076 97.2851L114.363 105.807ZM123.436 94.3466L124.702 102.742L133.567 100.114L132.32 91.8267L123.436 94.3466ZM133.533 91.4829L134.777 99.755L143.395 97.2001L142.17 89.033L133.533 91.4829ZM143.383 88.6891L144.605 96.8413L152.964 94.363L151.758 86.3135L143.383 88.6891ZM152.971 85.9696L154.175 94.0042L162.302 91.5947L161.117 83.6592L152.971 85.9696ZM162.329 83.3153L163.512 91.2359L171.388 88.9011L170.221 81.0769L162.329 83.3153ZM171.433 80.733L172.598 88.5423L180.271 86.2675L179.122 78.5523L171.433 80.733ZM180.334 78.2083L181.481 85.9087L188.95 83.6944L187.819 76.0854L180.334 78.2083ZM125.036 74.0617L128.914 81.4632L120.019 83.8716L116.095 76.372L125.036 74.0617ZM91.8437 63.6105L100.757 61.5014L94.3131 57.3443L85.3274 59.3935L91.8437 63.6105ZM96.0168 56.9557L102.444 61.1021L111.08 59.0586L104.726 54.9696L96.0168 56.9557ZM106.431 54.5806L112.769 58.659L121.183 56.6682L114.914 52.646L106.431 54.5806ZM116.622 52.2565L122.874 56.268L130.996 54.346L124.814 50.3883L116.622 52.2565ZM126.546 50.0127L132.689 53.9454L140.559 52.0832L134.483 48.2025L126.546 50.0127ZM136.194 47.8123L142.253 51.6823L149.869 49.88L143.876 46.0604L136.194 47.8123ZM145.593 45.6726L151.565 49.4787L158.987 47.7227L153.08 43.9657L145.593 45.6726ZM154.794 43.5748L160.684 47.321L167.875 45.6193L162.043 41.9221L154.794 43.5748ZM93.4662 50.8743L87.6688 49.6778L80.0648 51.3268L85.9339 52.5425L93.4662 50.8743ZM81.3413 121.288L77.5774 122.423L80.2341 124.532L81.2269 121.888C81.229 121.88 81.2311 121.873 81.2335 121.865L81.3413 121.288ZM82.2008 122.85L100.46 129.683L97.5266 137.423L80.5464 127.257L81.0331 125.962C81.0615 125.911 81.0828 125.856 81.096 125.798C81.1068 125.773 81.1157 125.747 81.1229 125.72L82.2008 122.85ZM98.8999 137.327L108.018 134.32L110.836 126.914L101.743 129.824L98.8999 137.327ZM186.555 115.489L180.447 117.551L176.516 121.863L182.661 119.752L186.555 115.489ZM179.442 122.179L174.713 123.804L171.346 126.32L176.115 124.664L179.442 122.179ZM167.447 127.674L170.862 125.122L165.908 126.823L162.453 129.407L167.447 127.674ZM158.559 130.759L162.031 128.162L156.873 129.935C156.871 129.936 156.869 129.937 156.866 129.938L153.368 132.562L158.559 130.759ZM149.474 133.919L153.004 131.272L147.622 133.122L144.05 135.803L149.474 133.919ZM140.175 137.148L143.782 134.441L138.177 136.367L134.532 139.108L140.175 137.148ZM130.653 140.461L130.642 140.467L124.679 142.536L128.429 139.714L134.356 137.677L130.653 140.461ZM139.956 134.434L144.123 129.83L151.111 127.469L146.986 132.018L139.956 134.434ZM149.437 131.176L156.229 128.842L160.299 124.365L153.543 126.647L149.437 131.176ZM162.727 123.552L158.696 127.987L165.236 125.739L169.223 121.359L162.727 123.552ZM171.663 120.535L167.704 124.884L174.06 122.702L177.978 118.403L171.663 120.535ZM141.708 130.636L137.514 135.27L130.24 137.769L134.475 133.079L141.708 130.636ZM132.052 133.897L127.799 138.608L120.295 141.187L124.595 136.416L132.052 133.897ZM122.176 137.233L117.857 142.025L110.05 144.708L114.413 139.855L122.176 137.233ZM111.999 140.67L107.639 145.519L99.6064 148.279L104.016 143.367L111.999 140.67ZM101.602 144.185L97.1775 149.113L88.8363 151.979L93.3086 146.984L101.602 144.185ZM92.0649 146.499L86.7884 152.393L73.9158 136.666L75.1069 135.324C75.1316 135.3 75.1543 135.274 75.1747 135.247L76.8828 133.322L92.0649 146.499ZM74.9937 132.125L75.9868 132.448L74.3183 134.329L69.5359 135.843L66.384 134.815L74.9937 132.125ZM73.3986 131.314L70.0732 129.514L61.0228 132.297L64.3932 134.127L73.3986 131.314ZM62.7316 134.647L59.3503 132.811L50.0369 135.675L53.4646 137.542L62.7316 134.647ZM51.8038 138.061L48.3521 136.181L38.7516 139.133L42.2494 141.045L51.8038 138.061ZM44.2381 141.734L53.3998 138.872L56.6286 139.93L47.516 142.814L44.2381 141.734ZM41.4085 142.01L37.3948 139.816L28.4335 156.683L35.4546 160.552L41.4085 142.01ZM36.6025 161.066L42.5646 142.498L46.786 143.889L44.0375 163.549L36.6025 161.066ZM45.2579 163.848L52.9422 164.89L52.3679 144.735L48.0099 144.163L45.2579 163.848ZM50.3917 143.215L52.9902 143.556L61.277 140.908L58.7258 140.577L50.3917 143.215ZM61.5468 139.683L64.0578 140.009L70.2605 138.028L71.1547 137.343L69.5775 137.141L61.5468 139.683ZM67.4903 136.49L64.3269 135.458L55.4549 138.23L58.6688 139.283L67.4903 136.49ZM72.4091 136.244L72.5642 136.264L72.6796 136.176L72.7011 136.152L72.4091 136.244ZM72.9919 137.511L71.0338 139.011C70.9877 139.06 70.9331 139.102 70.8714 139.135L69.4994 140.186L79.6645 157.944L85.8699 153.244L72.9919 137.511ZM87.0586 153.912L82.9529 157.022L89.9889 154.578L94.0411 151.513L87.0586 153.912ZM97.8376 150.208L93.8195 153.248L100.563 150.906L104.535 147.907L97.8376 150.208ZM108.3 146.631L104.412 149.566L110.845 147.333L114.691 144.434L108.3 146.631ZM118.509 143.123L114.68 146.008L120.768 143.894L120.849 143.855L124.605 141.028L118.509 143.123ZM78.5984 158.598L68.432 140.837L68.3174 140.893C68.242 140.956 68.1512 141.002 68.0508 141.024L65.8571 142.103C65.8021 142.145 65.7391 142.178 65.6695 142.201L65.64 142.21L64.5378 142.754L71.6803 161.96L78.5984 158.598ZM70.5061 162.389L63.3659 143.189L59.1853 144.3L63.0969 164.317L70.5061 162.389ZM61.8597 164.504L57.9507 144.5L53.6195 144.774L54.1944 164.95L61.8597 164.504ZM58.0886 143.239L58.3818 143.221L58.4406 143.205L64.5146 141.258L64.2322 141.276L58.0886 143.239ZM27.3953 155.973L36.3446 139.128L32.7097 136.214L21.0564 150.86L27.3953 155.973ZM20.1551 149.985L31.7949 135.356L28.657 131.813L14.6931 143.791L20.1551 149.985ZM13.9478 142.784L27.8996 130.816L25.3486 126.738L9.52267 135.689L13.9478 142.784ZM8.94869 134.577L24.7675 125.63L22.893 121.147L5.69801 126.796L8.94869 134.577ZM5.30957 125.608L22.5039 119.959L21.3789 115.246L3.35384 117.423L5.30957 125.608ZM3.15719 116.187L2.55256 107.85L20.8471 109.219L21.1893 114.01L3.15719 116.187ZM22.6054 115.001L23.7024 119.597L33.9239 116.717L32.8439 112.189L22.6054 115.001ZM32.6423 110.949L22.4242 113.754L22.0922 109.105L32.3166 106.366L32.6423 110.949ZM34.0499 111.858L35.1281 116.378L45.0855 113.573L44.0233 109.12L34.0499 111.858ZM43.8234 107.878L33.8715 110.611L33.5463 106.037L43.5072 103.368L43.8234 107.878ZM43.4971 102.077L43.9232 97.6581L34.019 100.247L33.5918 104.73L43.4971 102.077ZM32.3033 105.076L32.7313 100.584L22.5627 103.241L22.1341 107.8L32.3033 105.076ZM20.863 107.966L21.3099 103.212L3.3167 98.3293L2.55355 106.597L20.863 107.966ZM3.52628 97.091L5.6277 89.2204L22.7518 97.4823L21.5397 101.98L3.52628 97.091ZM22.8637 101.871L32.9313 99.2392L34.0539 95.0953L23.9974 97.6639L22.8637 101.871ZM24.6114 96.2169L34.4951 93.6925L36.2131 90.0389L26.3509 92.5069L24.6114 96.2169ZM25.1297 92.1668L9.41953 80.7638L6.04248 88.0327L23.1894 96.3055L25.1297 92.1668ZM37.7879 89.6275L36.0649 93.2916L45.6812 90.8355L47.3853 87.225L37.7879 89.6275ZM45.2359 92.2393L35.4452 94.74L34.325 98.8749L44.1266 96.313L45.2359 92.2393ZM45.4679 114.764L35.5192 117.566L37.3163 121.858L47.2397 118.992L45.4679 114.764ZM47.8083 120.129L37.9249 122.983L40.3521 126.857L50.2033 123.947L47.8083 120.129ZM50.968 125.024L41.1954 127.912L44.1232 131.211L53.858 128.274L50.968 125.024ZM55.1769 127.876L52.2926 124.633L61.7773 121.83L64.6272 125.025L55.1769 127.876ZM54.8389 129.284L45.2373 132.181L48.5449 134.826L58.1027 131.887L54.8389 129.284ZM59.5496 131.442L56.2934 128.845L65.6099 126.034L68.8237 128.591L59.5496 131.442ZM47.0882 135.262L43.7841 132.619L33.9318 135.592L37.2813 138.277L47.0882 135.262ZM32.8154 134.623L42.805 131.609L39.8714 128.303L29.8428 131.266L32.8154 134.623ZM28.9969 130.213L39.1075 127.225L36.6758 123.344L26.5322 126.273L28.9969 130.213ZM25.9208 125.148L36.1073 122.207L34.3071 117.908L24.0962 120.784L25.9208 125.148ZM61.0121 120.753L51.4482 123.579L49.0577 119.769L58.6535 117.001L61.0121 120.753Z" fill="#1C28FF"/>
</svg>
