<svg width="472" height="400" viewBox="0 0 472 400" fill="none" xmlns="http://www.w3.org/2000/svg">
<path d="M1 39C1 32.9249 5.92487 28 12 28H36.5879C40.1112 28 43.4836 26.5699 45.9329 24.0372L64.9686 4.35315C67.0411 2.21008 69.8947 1 72.8759 1H180.338C183.512 1 186.532 2.37102 188.62 4.76079L205.048 23.5554C207.517 26.3797 211.085 28 214.836 28H460C466.075 28 471 32.9249 471 39V388C471 394.075 466.075 399 460 399H12C5.92486 399 1 394.075 1 388V39Z" fill="white" stroke="#222329" stroke-width="2"/>
</svg>
