<svg width="380" height="281" viewBox="0 0 380 281" fill="none" xmlns="http://www.w3.org/2000/svg">
<path d="M1 39C1 32.9249 5.92487 28 12 28H30.7075C34.5422 28 38.1814 26.3069 40.6515 23.3736L56.1954 4.91463C58.2855 2.43262 61.3647 1 64.6095 1H155.83C159.265 1 162.502 2.6046 164.583 5.33792L177.929 22.8734C180.388 26.1037 184.214 28 188.274 28H368C374.075 28 379 32.9249 379 39V269C379 275.075 374.075 280 368 280H12C5.92487 280 1 275.075 1 269V39Z" fill="white" stroke="#222329" stroke-width="2"/>
</svg>
