<svg width="200" height="200" viewBox="0 0 200 200" fill="none" xmlns="http://www.w3.org/2000/svg">
<g clip-path="url(#clip0_1658_27685)">
<path fill-rule="evenodd" clip-rule="evenodd" d="M104.74 6.70228C104.765 6.70215 104.79 6.70351 104.815 6.70633L115.141 7.86396C115.167 7.86686 115.192 7.8713 115.218 7.87728L125.126 10.2131C125.152 10.2193 125.178 10.2271 125.203 10.2364L129.657 11.8888L134.321 13.6381C134.332 13.6423 134.343 13.6469 134.354 13.6517L134.466 13.7008L140.517 15.9581C140.545 15.9687 140.573 15.9814 140.6 15.9959L150.369 21.3005C150.399 21.3165 150.427 21.3349 150.454 21.3553L158.844 27.766C158.85 27.7707 158.856 27.7756 158.862 27.7805C158.869 27.7859 158.875 27.7915 158.881 27.7971L165.768 33.93C165.785 33.9444 165.8 33.9596 165.815 33.9756L173.417 42.2436C173.445 42.2737 173.469 42.3063 173.491 42.341L178.839 50.9589L178.84 50.9608L178.881 51.0277C178.891 51.0433 178.9 51.0594 178.908 51.0759L179.195 51.6435L184.837 60.8455C184.853 60.8706 184.866 60.8967 184.878 60.9236C184.886 60.9415 184.893 60.9597 184.899 60.9782L188.456 71.5461C188.458 71.5522 188.46 71.5583 188.462 71.5645L191.751 82.3896C191.764 82.4327 191.772 82.477 191.776 82.5219L192.785 93.9953C192.789 94.0336 192.789 94.072 192.785 94.1102L193.256 105.324C193.257 105.366 193.255 105.409 193.248 105.451L191.449 117.06L191.449 117.065C191.451 117.12 191.446 117.176 191.435 117.229L189.124 127.916C189.116 127.953 189.105 127.989 189.09 128.024L184.509 139.256C184.491 139.299 184.469 139.341 184.442 139.38L184.381 139.468L179.754 148.365C179.741 148.389 179.727 148.413 179.712 148.435L172.926 158.267L172.849 158.418C172.818 158.48 172.777 158.536 172.728 158.585L166.294 164.99C166.287 164.997 166.28 165.004 166.273 165.01L166.017 165.244L164.534 166.826C164.53 166.831 164.525 166.836 164.52 166.84C164.518 166.843 164.515 166.846 164.512 166.848L158.293 172.885L157.783 173.41C157.752 173.442 157.717 173.471 157.68 173.496L147.351 180.468C147.257 180.568 147.138 180.631 147.013 180.658L135.106 186.158C135.077 186.172 135.047 186.183 135.015 186.192L134.781 186.261L130.656 188.008C130.632 188.018 130.608 188.027 130.584 188.034L119.2 191.35L119.172 191.365C119.064 191.42 118.948 191.441 118.835 191.434L107.488 193.064L107.486 193.065L106.863 193.156C106.776 193.183 106.684 193.191 106.594 193.18L94.3993 193.245C94.3049 193.263 94.2078 193.26 94.1153 193.236L82.0005 191.633C81.9829 191.632 81.9653 191.629 81.9477 191.626L81.9379 191.625C81.9076 191.621 81.8775 191.615 81.848 191.607L70.2566 188.365C70.232 188.358 70.2078 188.35 70.1842 188.34L65.9224 186.588L65.8763 186.575C65.8551 186.569 65.8343 186.562 65.8138 186.554C65.8041 186.55 65.7945 186.546 65.785 186.542L53.684 181.109C53.6709 181.103 53.6579 181.096 53.6452 181.09C53.6272 181.08 53.6096 181.07 53.5925 181.058L53.5853 181.054C53.58 181.05 53.5747 181.047 53.5695 181.043L43.0717 174.128C43.0341 174.103 42.9992 174.075 42.9675 174.043L42.9507 174.026L36.1153 167.538C36.1079 167.531 36.1006 167.523 36.0935 167.516L34.3304 165.677L27.8323 159.341C27.7829 159.293 27.7414 159.237 27.7095 159.175L27.6941 159.146L20.7447 149.31C20.729 149.288 20.7148 149.265 20.702 149.241L15.8894 140.222C15.8858 140.215 15.8824 140.208 15.8791 140.201C15.8669 140.178 15.8562 140.153 15.8471 140.128L11.154 128.972C11.1393 128.937 11.1277 128.901 11.1193 128.864L8.71442 118.279C8.68427 118.203 8.66869 118.122 8.66847 118.04L6.74704 106.445C6.74008 106.403 6.73725 106.36 6.73861 106.318L7.0955 95.1265C7.08222 95.038 7.08732 94.9478 7.11049 94.8613L7.99099 83.4959C7.99447 83.451 8.00261 83.4065 8.01527 83.3632L11.1525 72.6462L11.1564 72.5949C11.1603 72.5431 11.1704 72.492 11.1864 72.4426L14.635 61.8335C14.6502 61.7869 14.6706 61.7421 14.6958 61.7L20.246 52.4416L20.5326 51.8587C20.5406 51.8424 20.5493 51.8265 20.5586 51.8109L20.5895 51.7595L20.5911 51.7569L25.8566 43.0772C25.8779 43.0422 25.9024 43.0093 25.9298 42.9789L33.4549 34.6336C33.4695 34.6175 33.4848 34.6021 33.5009 34.5876L40.3363 28.3827C40.3483 28.3717 40.3608 28.3613 40.3736 28.3513L48.7017 21.8583C48.7282 21.8376 48.7563 21.819 48.7857 21.8026L58.5035 16.4004C58.5301 16.3856 58.5578 16.3726 58.5862 16.3617L64.6143 14.0438L64.7289 13.9909C64.7414 13.9851 64.7542 13.9797 64.7671 13.9747L69.4047 12.1843L69.4068 12.1835L73.8488 10.4856C73.8739 10.476 73.8995 10.468 73.9256 10.4616L83.8133 8.02798C83.8387 8.02174 83.8644 8.01703 83.8903 8.01388L94.2052 6.75849C94.2302 6.75544 94.2554 6.75385 94.2807 6.75373L104.74 6.70228ZM49.4168 22.9523L45.6973 25.8521L49.2585 24.1852L52.4502 21.6902L49.4168 22.9523ZM56.8833 19.8781L52.0103 23.6873L59.9462 22.2993L63.68 19.3638L56.8833 19.8781ZM65.9358 19.2471L62.0164 22.3285L72.2087 22.7904L74.6794 20.8268L65.9358 19.2471ZM76.3083 21.1959L73.8905 23.1174L85.5352 25.7713L86.3362 25.1277L76.3083 21.1959ZM87.5675 24.2115L77.6897 20.3386L80.6228 18.6879L88.6195 23.613L87.5675 24.2115ZM87.6785 25.7201L92.051 28.2615L86.983 26.2788L87.6785 25.7201ZM84.5029 26.8718L72.6599 24.1728L70.7921 26.3116L83.9364 27.5315L84.5029 26.8718ZM85.4 27.8263L85.8938 27.2513L90.4942 29.051L85.4 27.8263ZM83.1647 28.7679L69.8232 27.5297L68.5099 29.8694L82.7813 29.4695L83.1647 28.7679ZM82.3167 30.7855L67.8748 31.1902L67.1688 33.6617L82.0128 31.5234L82.0145 31.5231L82.1206 31.5082L82.3167 30.7855ZM83.4898 31.4357L83.6575 30.8181L88.7709 31.3814L83.4898 31.4357ZM81.977 32.8444L66.8894 35.0178L66.8229 37.5971L81.9692 33.6131L81.977 32.8444ZM83.2741 33.376L83.2806 32.7404L88.6467 32.6852L83.2741 33.376ZM82.1415 34.9146L66.926 38.9167L67.525 41.5034L82.337 35.698L82.1415 34.9146ZM83.5812 35.3046L83.4229 34.67L88.815 33.9767L83.5812 35.3046ZM82.795 36.9174L67.9606 42.7316L69.2695 45.3132L83.2395 37.7651L82.795 36.9174ZM84.4205 37.2126L84.0608 36.5266L89.9921 35.0218L84.4205 37.2126ZM83.9563 38.8582L69.9948 46.4017L71.9759 48.8205L84.6357 39.6669L83.9563 38.8582ZM85.7371 38.9532L85.1949 38.3077L90.8693 36.0764L85.7371 38.9532ZM85.5573 40.6078L72.9188 49.746L75.6149 51.9906L86.552 41.4182L85.5573 40.6078ZM87.5421 40.5449L86.7347 39.8871L92.6483 36.5723L87.5421 40.5449ZM87.635 42.1828L76.7216 52.7323L79.9787 54.6271L88.8436 42.8735L87.635 42.1828ZM89.6805 41.8517L88.7021 41.2925L93.8769 37.2667L89.6805 41.8517ZM90.0308 43.4625L81.1848 55.191L84.9601 56.6929L91.4728 44.0265L90.0308 43.4625ZM92.1116 42.8778L90.9299 42.4156L95.3931 37.5392L92.1116 42.8778ZM92.7233 44.4428L86.2222 57.0867L90.469 58.1421L94.4273 44.8608L92.7233 44.4428ZM95.7145 45.1019L91.7611 58.367L96.2198 58.8925L97.5034 45.3095L95.7145 45.1019ZM97.6377 44.0139L96.1329 43.8392L98.368 37.5197L97.6377 44.0139ZM98.8045 45.3855L97.5215 58.9617L102.05 58.9384L100.627 45.3762L98.8045 45.3855ZM100.477 44.0745L98.9407 44.0823L99.6752 37.5512L100.477 44.0745ZM101.928 45.2909L103.351 58.8572L107.827 58.2858L103.737 45.0616L101.928 45.2909ZM103.306 43.8034L101.78 43.9967L100.97 37.407L103.306 43.8034ZM105.022 44.809L109.116 58.0462L113.285 56.965L106.657 44.3915L105.022 44.809ZM105.968 43.2234L104.607 43.5707L102.424 37.5918L105.968 43.2234ZM107.908 43.9716L114.547 56.5645L118.348 55.0066L109.39 43.3752L107.908 43.9716ZM108.479 42.3377L107.258 42.8292L103.787 37.3134L108.479 42.3377ZM110.572 42.7763L119.548 54.4305L122.807 52.49L111.795 42.0589L110.572 42.7763ZM110.72 41.1795L109.725 41.7634L105.378 37.1083L110.72 41.1795ZM112.869 41.2824L123.904 51.7344L126.545 49.4887L113.83 40.4833L112.869 41.2824ZM114.749 39.5387L127.48 48.5552L129.449 46.099L115.437 38.7044L114.749 39.5387ZM116.143 37.6045L130.16 45.0017L131.425 42.438L116.563 36.7827L116.143 37.6045ZM115.295 36.4021L114.958 37.0607L109.617 35.0196L115.295 36.4021ZM117.016 35.5618L131.853 41.2073L132.434 38.5729L117.215 34.7305L117.016 35.5618ZM117.371 33.4267L132.518 37.2507L132.422 34.6942L117.356 32.6725L117.371 33.4267ZM117.2 31.3377L117.273 31.3473L117.275 31.3476L132.142 33.3425L131.41 30.8705L116.994 30.6074L117.2 31.3377ZM116.514 29.296L130.762 29.556L129.433 27.2418L116.129 28.6085L116.514 29.296ZM114.751 28.8144L115.084 29.4092L109.883 30.0349L114.751 28.8144ZM115.346 27.3796L128.455 26.033L126.565 23.9138L114.772 26.7244L115.346 27.3796ZM113.384 27.1165L113.885 27.6887L108.789 28.9665L113.384 27.1165ZM113.731 25.6336L125.326 22.8702L122.876 20.9654L112.913 24.9884L113.731 25.6336ZM111.673 24.0845L121.463 20.1312L118.528 18.5176L110.618 23.4977L111.673 24.0845ZM109.268 22.8084L117.053 17.9072L113.61 16.6045L107.903 22.2871L109.268 22.8084ZM106.523 21.8232L112.156 16.2137L108.409 15.3235L104.976 21.4538L106.523 21.8232ZM103.63 21.1919L107.035 15.1113L102.962 14.6515L101.841 20.9893L103.63 21.1919ZM100.532 20.9106L101.65 14.5886L97.4875 14.6073L98.6746 20.9203L100.532 20.9106ZM98.8886 22.2216L100.332 22.2141L99.6366 27.2841L98.8886 22.2216ZM97.3668 21.0133L96.1754 14.6777L92.1011 15.1752L95.5783 21.2352L97.3668 21.0133ZM96.1795 22.473L97.5835 22.2989L98.3228 27.3026L96.1795 22.473ZM94.2357 21.5123L90.7266 15.3967L86.9125 16.3417L92.6267 21.9152L94.2357 21.5123ZM93.5546 23.0255L94.8553 22.6999L96.9354 27.3873L93.5546 23.0255ZM91.2589 22.4005L85.4674 16.7515L82.0939 18.0642L89.9625 22.9105L91.2589 22.4005ZM91.1436 23.8455L92.2155 23.4238L95.2288 27.3115L91.1436 23.8455ZM89.8185 24.4293L88.9246 24.9379L93.6659 27.6936L89.8185 24.4293ZM89.4993 30.1513L84.2113 29.5688L84.5439 28.96L89.4993 30.1513ZM97.0579 37.318L94.8294 43.6184L93.4007 43.2679L97.0579 37.318ZM106.893 36.6257L111.871 40.4188L112.644 39.7751L106.893 36.6257ZM113.641 38.8358L108.299 35.9106L114.195 38.1633L113.641 38.8358ZM110.132 33.8047L115.769 35.1771L115.932 34.4953L110.132 33.8047ZM110.84 32.5774L116.064 33.1993L116.051 32.5774H110.84ZM110.48 31.2749H115.829L115.653 30.6527L110.48 31.2749ZM107.159 28.2188L112.288 26.154L111.575 25.5917L107.159 28.2188ZM105.602 27.6291L110.321 24.8225L109.421 24.322L105.602 27.6291ZM103.817 27.4527L108.089 23.7523L106.954 23.3191L103.817 27.4527ZM102.444 27.107L105.605 22.943L104.368 22.6476L102.444 27.107ZM100.952 27.2761L103.041 22.4359L101.638 22.2771L100.952 27.2761ZM80.6303 17.2362L84.1738 15.8573L79.3716 12.8732L74.0923 14.9164L80.6303 17.2362ZM72.1113 14.2866L77.0852 12.3615L74.1468 11.7994L68.0895 14.1314L72.1113 14.2866ZM65.0404 15.3172L59.5496 18.3702L65.5558 17.9157L69.8757 15.5037L65.0404 15.3172ZM77.0619 11.031L83.868 9.35583L85.3288 10.0401L79.4478 11.4874L77.0619 11.031ZM81.1096 12.4198L87.0369 10.961L89.8647 14.2684L85.7321 15.2923L81.1096 12.4198ZM91.3139 13.9592L95.8754 13.4022L94.9326 9.95549L88.5557 10.7331L91.3139 13.9592ZM87.3828 9.56407L94.3253 8.71746L93.9454 8.10217L86.2591 9.03764L87.3828 9.56407ZM95.4441 8.05047L103.626 8.01022L103.301 8.55115L95.7764 8.58864L95.4441 8.05047ZM96.2646 9.88867L102.824 9.85599L101.925 13.2849L97.1994 13.3062L96.2646 9.88867ZM103.248 13.3731L104.156 9.91078L110.538 10.6281L107.807 13.8877L103.248 13.3731ZM109.256 14.1861L112.057 10.8427L117.918 12.2283L113.32 15.1514L109.256 14.1861ZM114.89 15.6964L119.653 12.6687L125.013 14.686L118.512 17.0664L114.89 15.6964ZM120.074 17.8813L126.828 15.4084L131.458 17.9351L123.077 19.5325L120.074 17.8813ZM124.509 20.5855L133.202 18.9284L137.143 21.9671L127.005 22.526L124.509 20.5855ZM128.178 23.7658L138.651 23.1884L141.771 26.6385L130.095 25.9155L128.178 23.7658ZM130.953 27.2735L142.955 28.0168L145.207 31.8549L132.31 29.6364L130.953 27.2735ZM132.82 31.0457L145.976 33.3086L147.259 37.4574L133.574 33.5908L132.82 31.0457ZM133.736 34.9902L147.61 38.91L147.832 43.2462L133.836 37.6473L133.736 34.9902ZM133.676 38.9864L147.791 44.6328L146.876 49.0884L133.068 41.7422L133.676 38.9864ZM132.612 42.9749L146.481 50.3536L144.41 54.7102L131.28 45.6741L132.612 42.9749ZM130.578 46.7721L143.731 55.8241L140.49 59.9719L128.501 49.3633L130.578 46.7721ZM127.598 50.3028L139.589 60.9134L135.237 64.6872L124.803 52.6789L127.598 50.3028ZM123.745 53.4472L120.299 55.4992L128.822 68.6945L134.173 65.4484L123.745 53.4472ZM134.993 66.4741L129.487 69.8146L137.187 84.0184L144.39 79.5665L134.993 66.4741ZM145.101 80.6585L153.075 94.2831L144.322 99.7902L137.771 85.1888L145.101 80.6585ZM136.028 84.6123L127.668 88.1532L121.935 73.0683L128.326 70.405L136.028 84.6123ZM127.648 69.2765L121.438 71.864L115.114 57.7396L119.132 56.0928L127.648 69.2765ZM113.874 58.1579L120.193 72.2703L113.388 74.0628L109.475 59.2987L113.874 58.1579ZM108.194 59.5519L112.105 74.3069L104.853 75.2481L103.479 60.154L108.194 59.5519ZM102.179 60.2402L103.553 75.3305L96.1938 75.3692L97.4068 60.2648L102.179 60.2402ZM96.1062 60.1905L91.4067 59.6367L87.6474 74.4305L94.893 75.2965L96.1062 60.1905ZM94.7963 76.5967L87.3452 75.7061L83.9463 91.4376L93.7062 92.6221L94.7963 76.5967ZM93.6248 93.9243L83.6909 92.7186L80.7992 108.733L92.7054 110.205L93.6248 93.9243ZM94.0058 110.278L94.925 94.0008L105.015 93.9504L106.101 110.214L94.0058 110.278ZM92.6388 111.509L80.5892 110.02L78.3247 125.665L91.93 127.373L92.6388 111.509ZM91.8792 128.679L78.163 126.957L76.6155 141.539L91.4075 143.422L91.8792 128.679ZM92.7081 143.5L93.1799 128.755L107.12 128.68L107.743 143.42L92.7081 143.5ZM91.3739 144.73L76.507 142.838L75.7067 155.848L91.1493 157.834L91.3739 144.73ZM92.4505 157.916L92.6753 144.802L107.789 144.722L108.15 157.831L92.4505 157.916ZM91.1372 159.145L75.6659 157.156L75.6153 168.075L91.1556 170.096L91.1372 159.145ZM92.4582 170.182L92.4398 159.219L108.174 159.133L108.266 170.097L92.4582 170.182ZM91.1731 171.412L75.6712 169.395L76.3123 177.833L91.4181 179.816L91.1731 171.412ZM91.4822 181.138L76.5311 179.176L77.7364 184.878L91.9073 186.745L91.4822 181.138ZM92.0645 188.08L78.3468 186.273L79.7772 189.064L92.5575 190.753L92.0645 188.08ZM93.9018 190.86L93.4006 188.143L107.506 188.065L107.032 190.789L93.9018 190.86ZM78.0962 188.639L76.7521 186.017L64.245 182.529L66.4162 185.373L78.0962 188.639ZM63.9514 184.291L62.1248 181.898L51.8912 177.322L54.3292 179.971L63.9514 184.291ZM49.865 177.043L48.8412 175.931L42.6126 171.835L43.8447 173.078L49.865 177.043ZM38.25 167.407L47.8329 173.709L45.5412 168.261L35.4639 161.664L38.25 167.407ZM34.4436 159.439L32.8873 151.087L43.9113 158.248L45.1956 166.478L34.4436 159.439ZM47.3035 169.091L49.7655 174.944L61.4599 180.174L59.6191 174.57L47.3035 169.091ZM61.1482 175.052L63.0509 180.844L76.3353 184.548L75.1485 178.932L61.1482 175.052ZM74.9834 177.535L60.7437 173.588L59.7401 165.139L74.3466 169.154L74.9834 177.535ZM74.3142 167.794L59.6362 163.759L59.7554 152.936L74.3646 156.914L74.3142 167.794ZM74.4183 155.578L59.8203 151.604L61.1558 138.819L75.2168 142.598L74.4183 155.578ZM75.3332 141.281L61.3355 137.519L63.8945 123.274L76.8791 126.714L75.3332 141.281ZM77.0454 125.411L64.1623 121.997L67.8838 106.799L79.3077 109.781L77.0454 125.411ZM79.5195 108.491L68.2298 105.544L72.9783 90.0565L82.4111 92.4768L79.5195 108.491ZM82.6657 91.1975L73.3976 88.8195L78.9781 73.6746L86.0647 75.4655L82.6657 91.1975ZM86.3628 74.1975L79.4722 72.4561L85.6454 58.2854L90.1234 59.3983L86.3628 74.1975ZM84.4042 57.8735L80.413 56.2857L72.0351 69.5472L78.2276 72.0519L84.4042 57.8735ZM77.7426 73.2607L71.3692 70.6827L63.8109 84.9694L72.1621 88.4054L77.7426 73.2607ZM71.7433 89.6414L63.242 86.1437L56.8181 100.861L66.9965 105.123L71.7433 89.6414ZM66.6438 106.387L56.3457 102.076L51.3145 116.622L62.9288 121.559L66.6438 106.387ZM62.6466 122.854L50.9467 117.881L47.4904 131.63L60.0933 137.068L62.6466 122.854ZM59.8902 138.399L47.2439 132.942L45.4304 145.394L58.5603 151.13L59.8902 138.399ZM58.4576 152.506L45.3468 146.779L45.1692 157.44L58.3393 163.255L58.4576 152.506ZM58.3759 164.695L59.3661 173.032L46.6541 167.377L45.3372 158.938L58.3759 164.695ZM43.8794 156.674L44.0547 146.143L32.8564 138.941L32.6316 149.368L43.8794 156.674ZM31.353 148.246L31.5729 138.047L22.6423 129.748L22.3829 139.821L31.353 148.246ZM21.1236 138.125L21.3719 128.486L15.0681 119.722L14.7944 129.239L21.1236 138.125ZM13.572 126.436L9.97501 117.916L10.235 109.52L13.8173 117.908L13.572 126.436ZM15.1796 117.647L17.8358 106.857L24.1428 115.497L21.7055 126.72L15.1796 117.647ZM22.7458 128.066L25.2368 116.597L33.9837 124.616L31.8075 136.487L22.7458 128.066ZM32.9541 137.456L35.1567 125.44L46.0163 132.334L44.2157 144.698L32.9541 137.456ZM46.3113 130.978L35.4677 124.095L39.6783 110.986L49.7541 117.283L46.3113 130.978ZM50.1528 115.996L40.1407 109.74L46.2756 96.027L55.1696 101.491L50.1528 115.996ZM55.6583 100.263L46.8628 94.8592L54.7159 81.1149L62.0762 85.5588L55.6583 100.263ZM62.6479 84.3826L55.4165 80.0164L64.6836 66.8308L70.2039 70.1002L62.6479 84.3826ZM70.8571 68.9733L65.4948 65.7975L75.7932 53.699L79.2398 55.7041L70.8571 68.9733ZM74.7251 52.9445L71.8759 50.5725L60.0042 61.2935L64.423 65.0473L74.7251 52.9445ZM63.6222 66.076L59.0786 62.2162L48.4387 74.1073L54.3641 79.2487L63.6222 66.076ZM53.6506 80.354L47.6261 75.1266L38.6305 87.7143L45.8125 94.0721L53.6506 80.354ZM45.1912 95.2615L37.9393 88.8419L30.9461 101.569L39.0852 108.91L45.1912 95.2615ZM38.5648 110.194L30.3934 102.825L25.6106 115.172L34.3825 123.215L38.5648 110.194ZM24.666 114.005L29.393 101.802L23.4381 93.7951L18.2882 105.267L24.666 114.005ZM17.5458 103.741L22.5864 92.5121L18.8805 84.1795L13.5989 94.6573L17.5458 103.741ZM13.1848 92.5854L11.6635 83.7663L16.7888 74.46L18.2432 82.5503L13.1848 92.5854ZM19.6676 82.7443L23.4079 91.1541L30.8776 79.6843L27.508 72.3179L19.6676 82.7443ZM26.9509 70.8917L19.2998 81.0664L17.8003 72.7251L25.5639 63.5857L26.9509 70.8917ZM28.427 71.1961L31.7884 78.5443L41.5103 67.3274L38.6546 61.283L28.427 71.1961ZM38.153 59.9553L28.0579 69.7399L26.6603 62.378L36.9299 53.9048L38.153 59.9553ZM39.6739 60.3914L42.4962 66.3653L54.0849 55.9639L51.9 51.493L39.6739 60.3914ZM51.4254 50.2276L39.2994 59.0531L38.0835 53.0383L50.4547 45.7417L51.4254 50.2276ZM53.003 50.7837L55.1362 55.1487L68.1557 45.9967L66.779 43.2813L53.003 50.7837ZM66.3149 42.051L52.6044 49.5177L51.6525 45.1188L65.6879 39.3433L66.3149 42.051ZM65.5094 38.0083L65.5782 35.3419L51.7722 39.3881L51.5961 43.7336L65.5094 38.0083ZM50.268 44.3397L50.4463 39.941L38.3826 45.6411L38.0715 51.5333L50.268 44.3397ZM36.7221 52.3877L37.0315 46.5269L27.1341 53.5449L26.6875 60.667L36.7221 52.3877ZM25.3066 61.8767L25.7398 54.9682L18.456 62.7134L17.8984 70.5978L25.3066 61.8767ZM16.4694 72.34L16.9767 65.1686L12.4384 72.9147L11.8482 80.731L16.4694 72.34ZM10.3266 83.5862C10.3269 83.5806 10.3273 83.5749 10.3277 83.5692L10.6808 78.8938L9.28431 83.6641L8.90395 88.5737L10.3266 83.5862ZM8.19039 101.656L8.04244 106.295L8.87603 111.326L9.02194 106.614L8.19039 101.656ZM9.82061 103.502L12.2128 94.6127L10.8271 86.5798L8.40608 95.0672L9.82061 103.502ZM10.3623 106.501L14.3076 115.74L16.8508 105.409L13.0253 96.6054L10.3623 106.501ZM11.6061 125.128L13.5234 129.669L14.2618 133.001L12.3767 128.52L11.6061 125.128ZM35.7157 165.167L33.3171 160.223L26.2309 153.52L28.8085 158.466L28.8153 158.476L35.2682 164.768L35.7157 165.167ZM24.4567 150.049L32.848 157.986L31.3686 150.047L22.7813 141.982L24.4567 150.049ZM22.5846 147.439L21.1133 140.356L15.4698 132.432L17.0662 139.636L22.5846 147.439ZM14.2391 67.2647L17.2249 62.1684L18.717 57.5459L15.8363 62.3513L14.2391 67.2647ZM21.5693 52.9491L19.3319 59.8808L25.907 52.8892L27.8422 46.7896L21.5693 52.9491ZM29.8054 44.9085L27.6991 51.5476L37.197 44.8129L38.8868 39.3408L29.8054 44.9085ZM40.5342 38.4201L38.8119 43.9977L50.6011 38.4274L51.8438 34.2601L40.5342 38.4201ZM52.3932 32.6703L41.4456 36.6971L44.4294 31.5744L54.5965 28.827L52.3932 32.6703ZM53.3491 33.7702L66.4655 31.3818L65.7351 33.9387L52.1078 37.9325L53.3491 33.7702ZM66.9611 29.9676L54.1014 32.3093L56.3197 28.44L68.3016 27.5796L66.9611 29.9676ZM69.1491 26.213L71.0454 24.0415L60.5261 23.5647L57.4327 27.0543L69.1491 26.213ZM55.5435 27.222L58.5129 23.8722L49.9668 25.3669L45.9958 29.8019L55.5435 27.222ZM43.6547 30.4641L47.0731 26.6462L41.1491 29.4192L36.9799 34.0523L43.5477 30.5482C43.5803 30.5165 43.6162 30.4883 43.6547 30.4641ZM42.2597 32.7116L34.513 36.8446L31.1444 42.5598L39.5114 37.43L42.2597 32.7116ZM31.1883 39.9204L28.7283 44.0941L24.1311 48.6083L26.9411 43.864L31.1883 39.9204ZM68.8714 47.0856L55.8245 56.2569L59.0979 60.3571L70.9643 49.6409L68.8714 47.0856ZM58.1683 61.2803L54.8051 57.0676L43.1653 67.5149L47.5514 73.1457L58.1683 61.2803ZM46.7038 74.1771L42.2513 68.461L32.4593 79.7588L37.7433 86.7157L46.7038 74.1771ZM36.986 87.8721L31.6635 80.8643L24.0914 92.4911L30.0478 100.5L36.986 87.8721ZM122.822 188.39L134.343 185.031L134.381 185.015L136.517 182.157L124.138 185.757L122.822 188.39ZM124.54 184.284L137.705 180.455L139.547 174.644L125.669 178.657L124.54 184.284ZM124.289 178.914L123.143 184.626L108.985 186.655L109.352 181.042L124.289 178.914ZM125.821 177.257L139.939 173.175L140.859 164.711L126.374 168.867L125.821 177.257ZM125.051 169.124L124.495 177.569L109.403 179.719L109.563 171.313L125.051 169.124ZM126.392 167.506L140.95 163.33L140.721 152.513L126.232 156.627L126.392 167.506ZM124.933 156.885L125.094 167.803L109.567 169.997L109.475 159.046L124.933 156.885ZM126.164 155.293L140.643 151.181L139.176 138.412L125.235 142.323L126.164 155.293ZM123.948 142.582L124.879 155.577L109.45 157.735L109.09 144.633L123.948 142.582ZM125.105 141.007L138.983 137.114L136.285 122.914L123.41 126.473L125.105 141.007ZM122.128 126.728L123.826 141.284L109.043 143.324L108.42 128.593L122.128 126.728ZM123.23 125.171L136.005 121.64L132.123 106.471L120.803 109.551L123.23 125.171ZM119.525 109.809L121.953 125.437L108.356 127.287L107.48 111.426L119.525 109.809ZM120.578 108.263L131.764 105.219L126.864 89.8013L117.528 92.3005L120.578 108.263ZM116.25 92.5525L119.302 108.524L107.4 110.122L106.315 93.8656L116.25 92.5525ZM117.26 91.0238L126.433 88.5684L120.699 73.484L113.699 75.3277L117.26 91.0238ZM112.42 75.5793L115.981 91.2742L106.22 92.5643L104.963 76.5472L112.42 75.5793ZM103.664 76.6324L96.0966 76.6722L95.0065 92.698L104.92 92.6485L103.664 76.6324ZM106.181 111.516L93.9394 111.581L93.2302 127.452L107.057 127.378L106.181 111.516ZM128.098 89.3855L136.609 85.7805L143.171 100.405L132.994 104.788L128.098 89.3855ZM133.359 106.049L137.237 121.199L148.842 116.12L143.658 101.614L133.359 106.049ZM144.826 101.012L149.998 115.484L159.955 109.112L153.675 95.4441L144.826 101.012ZM154.747 94.6576L161.001 108.269L169.029 100.874L161.897 88.1962L154.747 94.6576ZM162.838 87.2125L169.919 99.7986L175.793 91.7219L168.09 80.1487L162.838 87.2125ZM168.859 78.9532L176.464 90.3793L180.102 81.9503L172.137 71.5751L168.859 78.9532ZM172.693 70.1601L180.457 80.2737L181.873 71.8913L174.006 62.812L172.693 70.1601ZM174.234 61.0863L181.751 69.7615L181.114 61.9016L173.726 54.1965L174.234 61.0863ZM173.52 52.1006L180.19 59.0564L177.899 52.1971L171.543 46.0812L173.52 52.1006ZM170.615 43.3809L175.333 47.9202L172.414 43.1077L168.063 39.1458L170.615 43.3809ZM180.807 56.793L182.313 61.3005C182.315 61.3047 182.318 61.3088 182.32 61.3129L185.326 66.3281L183.709 61.5247L180.807 56.793ZM153.509 25.3285L149.841 22.5262C149.829 22.522 149.816 22.5173 149.804 22.5123L146.746 21.2729L149.886 23.6775L153.509 25.3285ZM147.129 23.2066L142.258 19.4757L135.463 19.0267L139.183 21.8949L147.129 23.2066ZM140.65 23.4572L149.246 24.8761L153.3 29.3146L143.689 26.8172L140.65 23.4572ZM144.706 28.4273L154.835 31.059L157.843 36.0981L146.921 32.2011L144.706 28.4273ZM147.487 33.7859L158.817 37.8285L160.599 43.3902L148.772 37.9409L147.487 33.7859ZM148.942 39.4532L161.045 45.0296L161.416 50.9086L149.166 43.844L148.942 39.4532ZM148.994 45.2484L161.421 52.4148L160.261 58.4938L148.061 49.7911L148.994 45.2484ZM147.59 51.0548L159.892 59.8298L157.15 65.8009L145.468 55.5185L147.59 51.0548ZM144.756 56.6274L156.491 66.9557L152.16 72.642L141.429 60.8857L144.756 56.6274ZM140.524 61.8263L136.047 65.7087L145.435 78.7886L151.278 73.6085L140.524 61.8263ZM153.017 73.6658L162.066 86.0681L167.281 79.0533L157.412 67.8957L153.017 73.6658ZM158.144 66.7574L167.934 77.8259L171.197 70.4828L160.919 60.7145L158.144 66.7574ZM161.416 59.3907L171.57 69.0402L172.896 61.6166L162.583 53.2749L161.416 59.3907ZM162.775 51.755L172.84 59.8959L172.316 52.7918L162.406 45.9056L162.775 51.755ZM162.225 44.1941L171.719 50.7911L169.564 44.2293L160.491 38.7845L162.225 44.1941ZM159.814 36.8594L168.195 41.8891L164.748 36.1698L156.988 32.1247L159.814 36.8594ZM155.655 29.9613L162.23 33.3881L158.043 28.8264L152.176 26.1525L155.655 29.9613ZM152.101 74.6199L146.159 79.8877L154.112 93.4764L161.191 87.0787L152.101 74.6199ZM133.554 17.5953L139.597 17.9946L134.09 14.9995L129.228 15.2343L133.554 17.5953ZM126.989 14.0385L131.079 13.8409L124.907 11.5273L121.918 12.1294L126.989 14.0385ZM119.555 11.2769L121.931 10.7982L115.196 9.21041L113.752 9.90502L119.555 11.2769ZM111.697 9.4478L112.809 8.91315L105.121 8.05114L104.751 8.667L111.697 9.4478ZM188.99 77.783L190.485 82.7035L190.923 87.6803L189.4 82.5331C189.399 82.5305 189.398 82.5278 189.398 82.5252L188.99 77.783ZM187.852 79.7533L187.182 71.9595L182.619 64.3455L183.198 71.4972L187.852 79.7533ZM182.901 73.623L188.084 82.8166L186.654 91.6628L181.528 81.7501L182.901 73.623ZM180.904 83.3786L186.266 93.7481L182.425 102.855L177.297 91.735L180.904 83.3786ZM176.457 93.0231L181.702 104.398L175.417 113.202L170.587 101.094L176.457 93.0231ZM169.595 102.123L174.486 114.383L165.831 122.489L161.533 109.55L169.595 102.123ZM160.428 110.355L164.758 123.39L153.982 130.394L150.411 116.767L160.428 110.355ZM149.223 117.374L152.811 131.062L140.222 136.654L137.531 122.492L149.223 117.374ZM140.438 137.983L141.899 150.703L155.013 144.8L153.074 132.371L140.438 137.983ZM154.295 131.744L156.221 144.09L167.407 136.724L165.083 124.731L154.295 131.744ZM166.246 123.885L168.543 135.739L177.487 127.246L174.879 115.799L166.246 123.885ZM175.961 114.682L178.514 125.891L184.939 116.753L182.172 105.981L175.961 114.682ZM183.139 104.512L185.792 114.837L189.635 105.567L186.866 95.6776L183.139 104.512ZM187.652 93.6538L188.952 85.6091L191.468 94.1145L190.144 102.554L187.652 93.6538ZM189.798 108.574L190.14 116.935L186.633 125.494L186.302 117.007L189.798 108.574ZM185.07 118.831L185.44 128.318L179.215 137.266L178.87 127.648L185.07 118.831ZM177.613 128.923L177.973 138.98L169.12 147.478L168.794 137.296L177.613 128.923ZM167.52 138.208L167.853 148.621L156.683 156.053L156.4 145.531L167.52 138.208ZM155.115 146.182L155.402 156.836L142.242 162.821L142.015 152.079L155.115 146.182ZM142.218 164.262L141.31 172.617L154.024 166.789L155.255 158.333L142.218 164.262ZM156.675 157.624L155.474 165.875L166.148 158.717L167.617 150.342L156.675 157.624ZM169.126 149.277L167.729 157.245L176.006 149.249L177.607 141.137L169.126 149.277ZM179.261 139.48L177.851 146.626L183.263 138.794L183.272 138.778L184.8 131.519L179.261 139.48ZM186.721 128.716L185.995 132.164L187.863 127.585L188.621 124.077L186.721 128.716ZM191.174 110.332L190.981 105.621L191.757 100.675L191.952 105.314L191.174 110.332ZM174.276 152.73L171.804 157.599L171.746 157.684L165.355 164.047L165.349 164.052C165.346 164.056 165.342 164.059 165.339 164.063L165.102 164.316L164.932 164.471L167.283 159.487L174.276 152.73ZM165.151 160.954L162.427 166.728L152.915 173.137L155.156 167.656L165.151 160.954ZM153.401 168.508L150.995 174.391L139.283 179.787L141.066 174.161L153.401 168.508ZM138.611 181.53L136.815 183.934L146.51 179.455L148.915 176.783L138.611 181.53ZM151.952 175.356L150.955 176.464L156.812 172.511C156.825 172.496 156.838 172.482 156.852 172.469L157.372 171.964L158.101 171.213L151.952 175.356ZM108.259 171.399L92.4782 171.484L92.7237 179.906L108.098 179.821L108.259 171.399ZM108.041 181.123L92.7937 181.208L93.2208 186.842L107.673 186.761L108.041 181.123ZM108.84 187.991L122.547 186.027L121.145 188.832L108.375 190.669L108.84 187.991ZM72.2774 15.6545L67.6566 18.2345L76.0715 19.7548L79.0729 18.0656L72.2774 15.6545Z" fill="#1C28FF"/>
</g>
<defs>
<clipPath id="clip0_1658_27685">
<rect width="186.25" height="186.25" fill="white" transform="translate(6.875 6.875)"/>
</clipPath>
</defs>
</svg>
