<svg width="285" height="261" viewBox="0 0 285 261" fill="none" xmlns="http://www.w3.org/2000/svg">
<path d="M1 39C1 32.9249 5.92487 28 12 28H30.7075C34.5422 28 38.1814 26.3069 40.6515 23.3736L56.1954 4.91463C58.2855 2.43262 61.3647 1 64.6095 1H155.83C159.265 1 162.502 2.6046 164.583 5.33792L177.929 22.8734C180.388 26.1037 184.214 28 188.274 28H273C279.075 28 284 32.9249 284 39V249C284 255.075 279.075 260 273 260H12C5.92487 260 1 255.075 1 249V39Z" fill="white" stroke="#222329" stroke-width="2"/>
</svg>
