<svg width="424" height="43" viewBox="0 0 424 43" fill="none" xmlns="http://www.w3.org/2000/svg">
<path d="M0 0H5.09943V42.901C2.28223 42.901 0 40.6187 0 37.8015V0ZM7.64668 42.901H10.1989V0H7.64668V42.901ZM15.2934 42.901H22.9401V0H15.2934V42.901ZM28.0395 42.901H33.1389V0H28.0395V42.901ZM38.2383 42.901H43.3378V0H38.2383V42.901ZM45.885 42.901H50.9844V0H45.885V42.901ZM56.0839 42.901H58.636V0H56.0839V42.901ZM61.1833 42.901H63.7355V0H61.1833V42.901ZM68.8349 42.901H73.9343V0H68.8349V42.901ZM84.1332 42.901H86.6853V0H84.1332V42.901ZM89.2326 42.901H99.4314V0H89.2326V42.901ZM101.979 42.901H109.625V0H101.979V42.901ZM112.178 42.901H117.277V0H112.178V42.901ZM119.824 42.901H127.471V0H119.824V42.901ZM132.57 42.901H135.123V0H132.57V42.901ZM140.217 42.901H145.316V0H140.217V42.901ZM147.864 42.901H152.963V0H147.864V42.901ZM158.063 42.901H163.162V0H158.063V42.901ZM168.261 42.901H173.361V0H168.261V42.901ZM175.908 42.901H183.56V0H175.908V42.901ZM188.654 42.901H191.206V0H188.654V42.901ZM196.301 42.901H203.948V0H196.301V42.901ZM206.5 42.901H209.052V0H206.5V42.901ZM214.146 42.901H219.246V0H214.146V42.901ZM224.345 42.901H226.897V0H224.345V42.901ZM231.997 42.901H239.644V0H231.997V42.901ZM244.743 42.901H249.842V0H244.743V42.901ZM252.39 42.901H257.489V0H252.39V42.901ZM260.041 42.901H265.141V0H260.041V42.901ZM270.24 42.901H275.34V0H270.24V42.901ZM280.439 42.901H282.991V0H280.439V42.901ZM288.091 42.901H295.737V0H288.091V42.901ZM300.837 42.901H305.936V0H300.837V42.901ZM308.488 42.901H316.135V0H308.488V42.901ZM318.687 42.901H323.786V0H318.687V42.901ZM326.339 42.901H333.985V0H326.339V42.901ZM336.538 42.901H344.184V0H336.538V42.901ZM346.736 42.901H351.836V0H346.736V42.901ZM354.383 42.901H362.03V0H354.383V42.901ZM364.582 42.901H374.781V0H364.582V42.901ZM377.328 42.901H379.88V0H377.328V42.901ZM382.427 42.901H384.98V0H382.427V42.901ZM392.626 42.901H397.726V0H392.626V42.901ZM405.372 42.901H413.024V0H405.372V42.901ZM415.571 42.901H418.123V0H415.571V42.901ZM420.671 42.901H424V0H420.671V42.901Z" fill="#222329"/>
</svg>
