<svg width="25" height="246" viewBox="0 0 25 246" fill="none" xmlns="http://www.w3.org/2000/svg">
<path d="M25 0L25 2.95863L1.13148e-05 2.95863C1.13862e-05 1.32412 1.32996 -1.03465e-06 2.97164 -9.6289e-07L25 0ZM1.12502e-05 4.43652L1.11854e-05 5.91726L25 5.91726L25 4.43652L1.12502e-05 4.43652ZM1.10562e-05 8.87304L1.08623e-05 13.3096L25 13.3096L25 8.87304L1.10562e-05 8.87304ZM1.0733e-05 16.2682L1.06037e-05 19.2268L25 19.2268L25 16.2682L1.0733e-05 16.2682ZM1.04743e-05 22.1854L1.0345e-05 25.1441L25 25.1441L25 22.1854L1.04743e-05 22.1854ZM1.02804e-05 26.622L1.01511e-05 29.5806L25 29.5806L25 26.622L1.02804e-05 26.622ZM1.00218e-05 32.5392L9.95703e-06 34.02L25 34.02L25 32.5392L1.00218e-05 32.5392ZM9.89243e-06 35.4979L9.82771e-06 36.9786L25 36.9786L25 35.4979L9.89243e-06 35.4979ZM9.69838e-06 39.9372L9.56905e-06 42.8959L25 42.8959L25 39.9372L9.69838e-06 39.9372ZM9.3104e-06 48.8131L9.24568e-06 50.2938L25 50.2938L25 48.8131L9.3104e-06 48.8131ZM9.18108e-06 51.7717L8.92243e-06 57.689L25 57.689L25 51.7717L9.18108e-06 51.7717ZM8.85783e-06 59.1669L8.6639e-06 63.6034L25 63.6034L25 59.1669L8.85783e-06 59.1669ZM8.59917e-06 65.0841L8.46985e-06 68.0428L25 68.0428L25 65.0841L8.59917e-06 65.0841ZM8.40525e-06 69.5207L8.21132e-06 73.9572L25 73.9572L25 69.5207L8.40525e-06 69.5207ZM8.082e-06 76.9158L8.01727e-06 78.3966L25 78.3966L25 76.9158L8.082e-06 76.9158ZM7.88807e-06 81.3523L7.75874e-06 84.311L25 84.311L25 81.3523L7.88807e-06 81.3523ZM7.69414e-06 85.7888L7.56482e-06 88.7475L25 88.7475L25 85.7888L7.69414e-06 85.7888ZM7.43549e-06 91.7061L7.30616e-06 94.6647L25 94.6647L25 91.7061L7.43549e-06 91.7061ZM7.17684e-06 97.6234L7.04751e-06 100.582L25 100.582L25 97.6234L7.17684e-06 97.6234ZM6.98291e-06 102.06L6.78886e-06 106.499L25 106.499L25 102.06L6.98291e-06 102.06ZM6.65966e-06 109.455L6.59494e-06 110.936L25 110.936L25 109.455L6.65966e-06 109.455ZM6.46573e-06 113.892L6.27181e-06 118.328L25 118.328L25 113.892L6.46573e-06 113.892ZM6.20708e-06 119.809L6.14236e-06 121.29L25 121.29L25 119.809L6.20708e-06 119.809ZM6.01316e-06 124.245L5.88383e-06 127.204L25 127.204L25 124.245L6.01316e-06 124.245ZM5.7545e-06 130.163L5.68978e-06 131.643L25 131.643L25 130.163L5.7545e-06 130.163ZM5.56045e-06 134.602L5.36653e-06 139.038L25 139.038L25 134.602L5.56045e-06 134.602ZM5.2372e-06 141.997L5.10788e-06 144.956L25 144.956L25 141.997L5.2372e-06 141.997ZM5.04327e-06 146.434L4.91395e-06 149.392L25 149.392L25 146.434L5.04327e-06 146.434ZM4.84922e-06 150.873L4.7199e-06 153.832L25 153.832L25 150.873L4.84922e-06 150.873ZM4.59057e-06 156.79L4.46125e-06 159.749L25 159.749L25 156.79L4.59057e-06 156.79ZM4.33192e-06 162.708L4.2672e-06 164.188L25 164.188L25 162.708L4.33192e-06 162.708ZM4.13787e-06 167.147L3.94394e-06 171.583L25 171.583L25 167.147L4.13787e-06 167.147ZM3.81462e-06 174.542L3.68529e-06 177.501L25 177.501L25 174.542L3.81462e-06 174.542ZM3.62057e-06 178.981L3.42664e-06 183.418L25 183.418L25 178.981L3.62057e-06 178.981ZM3.36192e-06 184.899L3.23259e-06 187.857L25 187.857L25 184.899L3.36192e-06 184.899ZM3.16786e-06 189.338L2.97394e-06 193.775L25 193.775L25 189.338L3.16786e-06 189.338ZM2.90921e-06 195.255L2.71529e-06 199.692L25 199.692L25 195.255L2.90921e-06 195.255ZM2.65056e-06 201.173L2.52124e-06 204.131L25 204.131L25 201.173L2.65056e-06 201.173ZM2.45663e-06 205.609L2.26271e-06 210.046L25 210.046L25 205.609L2.45663e-06 205.609ZM2.19798e-06 211.526L1.93933e-06 217.444L25 217.444L25 211.526L2.19798e-06 211.526ZM1.87473e-06 218.921L1.81001e-06 220.402L25 220.402L25 218.921L1.87473e-06 218.921ZM1.74541e-06 221.88L1.68068e-06 223.361L25 223.361L25 221.88L1.74541e-06 221.88ZM1.48675e-06 227.797L1.35743e-06 230.756L25 230.756L25 227.797L1.48675e-06 227.797ZM1.1635e-06 235.193L9.6945e-07 239.632L25 239.632L25 235.193L1.1635e-06 235.193ZM9.0485e-07 241.11L8.40124e-07 242.59L25 242.59L25 241.11L9.0485e-07 241.11ZM7.75524e-07 244.068L6.9109e-07 246L25 246L25 244.068L7.75524e-07 244.068Z" fill="#222329"/>
</svg>
