<svg width="401" height="53" viewBox="0 0 401 53" fill="none" xmlns="http://www.w3.org/2000/svg">
<path opacity="0.3" fill-rule="evenodd" clip-rule="evenodd" d="M401 29.6453V46.7589L394.85 53H377.988L401 29.6453ZM401 14.5553V0H398.478L346.255 53H363.119L401 14.5553ZM366.748 0H383.61L331.387 53H314.525L366.748 0ZM351.879 0H335.014L282.791 53H299.656L351.879 0ZM303.282 0H320.146L267.923 53H251.059L303.282 0ZM288.413 0H271.551L219.328 53H236.19L288.413 0ZM239.819 0H256.682L204.459 53H187.596L239.819 0ZM224.95 0H208.087L155.864 53H172.727L224.95 0ZM176.355 0H193.218L140.995 53H124.132L176.355 0ZM161.486 0H144.624L92.4008 53H109.264L161.486 0ZM112.892 0H129.755L77.5321 53H60.6694L112.892 0ZM98.0236 0H81.1599L28.937 53H45.8006L98.0236 0ZM49.4275 0H66.2912L14.0682 53H0V50.1629L49.4275 0ZM34.5588 0H17.6961L0 17.9594V35.0729L34.5588 0ZM0 0H2.8273L0 2.86937V0Z" fill="#EAFF00"/>
</svg>
