<svg width="710" height="585" viewBox="0 0 710 585" fill="none" xmlns="http://www.w3.org/2000/svg">
<path d="M235.871 57.1607L1.54624 562.267C-3.37337 572.871 4.37027 585 16.0605 585H607.603C611.743 585 615.722 583.395 618.703 580.523L705.101 497.292C708.231 494.276 710 490.116 710 485.769V419.989C710 416.208 708.661 412.549 706.22 409.661L683.798 383.133C681.357 380.245 680.017 376.586 680.017 372.805V167.73C680.017 163.949 681.357 160.289 683.798 157.401L706.22 130.874C708.661 127.986 710 124.327 710 120.545V61.0047C710 56.5149 708.114 52.2318 704.801 49.2009L655.62 4.19618C652.67 1.49699 648.817 0 644.819 0H253.356C244.52 0 237.356 7.16344 237.356 16V50.4274C237.356 52.7531 236.849 55.0509 235.871 57.1607Z" fill="#EAFF00"/>
</svg>
