<svg width="368" height="361" viewBox="0 0 368 361" fill="none" xmlns="http://www.w3.org/2000/svg">
<path d="M111.269 56.7546L1.47318 339.203C-2.60393 349.691 5.13321 361 16.3861 361H330.585C335.872 361 340.818 358.388 343.799 354.021L365.214 322.653C367.029 319.994 368 316.85 368 313.631V264.33C368 261.578 367.291 258.874 365.94 256.477L350.077 228.317C348.727 225.92 348.017 223.215 348.017 220.464V126.071C348.017 123.319 348.727 120.615 350.077 118.218L365.94 90.0579C367.291 87.6609 368 84.9562 368 82.205V39.8549C368 36.0488 366.643 32.3673 364.173 29.4715L343.825 5.61655C340.785 2.05271 336.336 0 331.652 0H128.356C119.52 0 112.356 7.16344 112.356 16V50.9575C112.356 52.9405 111.988 54.9063 111.269 56.7546Z" fill="#EAFF00"/>
</svg>
