<svg width="100" height="100" viewBox="0 0 100 100" fill="none" xmlns="http://www.w3.org/2000/svg">
<path fill-rule="evenodd" clip-rule="evenodd" d="M50 0C22.4279 0 0 22.4279 0 50C0 77.5721 22.4279 100 50 100C77.5721 100 100 77.5721 100 50C100 22.4278 77.5646 0 50 0ZM20.4082 77.9452C12.8724 73.4539 7.21965 67.3154 4.39084 60.2967C8.92107 65.3834 16.6812 69.5167 26.2414 72.112L20.4082 77.9452ZM15.4995 82.8539C11.3205 78.4659 7.96946 73.2844 5.69411 67.563C8.91408 72.2485 13.3768 76.3491 18.7286 79.6247L15.4995 82.8539ZM79.5843 22.0474C87.1201 26.5386 92.7729 32.6771 95.6017 39.6959C91.0715 34.6092 83.3113 30.4759 73.7511 27.8805L79.5843 22.0474ZM94.3059 32.422C91.0859 27.7365 86.6232 23.636 81.2713 20.3603L84.5005 17.1311C88.6795 21.5192 92.0305 26.7007 94.3059 32.422ZM66.9182 31.4352C65.4365 30.0815 63.7912 28.9032 62.0174 27.9331C64.4989 28.2455 66.9012 28.6515 69.2095 29.1439L66.9182 31.4352ZM65.2659 33.08L51.163 47.1829V27.2244C56.5742 27.4964 61.4902 29.6631 65.2659 33.08ZM66.9126 65.2584L52.8096 51.1555H72.7682C72.4961 56.5667 70.3294 61.4828 66.9126 65.2584ZM51.163 72.7524V52.7947L65.2655 66.8971C61.4899 70.3073 56.574 72.474 51.163 72.7524ZM34.734 66.905L48.837 52.7952V72.7607C43.4258 72.4886 38.5096 70.3219 34.734 66.905ZM33.0857 68.5534C34.5659 69.9052 36.2094 71.0819 37.9826 72.051C35.5037 71.7387 33.104 71.333 30.7979 70.8412L33.0857 68.5534ZM27.2327 51.163H47.1903L33.0879 65.2655C29.6777 61.4899 27.511 56.574 27.2327 51.163ZM33.0874 34.7341L47.1903 48.837H27.2318C27.5039 43.4258 29.6706 38.5098 33.0874 34.7341ZM37.9778 27.9412C36.2053 28.9106 34.5623 30.0877 33.0788 31.4397L30.7905 29.1513C33.0973 28.6593 35.498 28.2535 37.9778 27.9412ZM48.837 27.2327V47.1903L34.7345 33.0879C38.5101 29.6777 43.426 27.511 48.837 27.2327ZM72.7673 48.8295H52.8096L66.9121 34.7271C70.3223 38.5026 72.4889 43.4185 72.7673 48.8295ZM69.2095 70.8412C66.9027 71.3332 64.502 71.739 62.0222 72.0513C63.7947 71.0819 65.4377 69.9048 66.9212 68.5529L69.2095 70.8412ZM97.5552 48.8295H75.0892C74.8135 42.7758 72.3861 37.2747 68.5534 33.0783L71.8643 29.7674C79.394 31.6516 85.7276 34.465 90.2303 37.8634C94.5587 41.1303 97.1312 44.8843 97.5552 48.8295ZM79.5843 77.9302L73.7511 72.097C83.3113 69.5017 91.0715 65.3684 95.6017 60.2817C92.7729 67.3005 87.1201 73.4389 79.5843 77.9302ZM81.2713 79.6172C86.6274 76.3388 91.0893 72.2343 94.3103 67.5443C92.0349 73.2701 88.6823 78.4556 84.5005 82.8465L81.2713 79.6172ZM48.8444 88.0104V97.6476C36.5779 97.3521 25.4447 92.403 17.1465 84.5009L20.808 80.8455C28.737 85.2016 38.4058 87.8279 48.8444 88.0104ZM2.43736 51.163H24.9033C25.1791 57.2167 27.6064 62.7178 31.4391 66.9143L28.1282 70.2252C20.5986 68.3409 14.2649 65.5275 9.76221 62.1291C5.4338 58.8622 2.86134 55.1082 2.43736 51.163ZM20.4129 22.052L26.2489 27.888C16.6877 30.4835 8.92219 34.6172 4.39036 39.7046C7.21958 32.6838 12.8743 26.5438 20.4129 22.052ZM18.7287 20.3678C13.3726 23.6462 8.91065 27.7508 5.68964 32.4407C7.96507 26.715 11.3177 21.5295 15.4995 17.1386L18.7287 20.3678ZM9.76503 37.8606C14.2686 34.4613 20.6022 31.6479 28.1281 29.7673L31.4391 33.0783C27.6064 37.2747 25.1791 42.7758 24.9033 48.8295H2.43737C2.86153 44.8841 5.43565 41.1284 9.76503 37.8606ZM48.837 75.1127V85.6765C39.0452 85.4984 29.9857 83.0982 22.5137 79.1255L28.8606 72.7786C34.9553 74.2039 41.7134 75.0309 48.837 75.1127ZM48.837 14.316V24.8799C41.7134 24.9617 34.9553 25.7886 28.8606 27.2139L22.5137 20.8671C29.9857 16.8943 39.0452 14.4941 48.837 14.316ZM20.8009 19.1543C28.7299 14.7983 38.3985 12.1721 48.837 11.9895V2.34507C36.5664 2.64233 25.4423 7.59118 17.1388 15.4922L20.8009 19.1543ZM51.1555 11.9895V2.3449C63.4223 2.64042 74.5556 7.58971 82.8539 15.492L79.1916 19.1543C71.2626 14.7983 61.5941 12.1721 51.1555 11.9895ZM71.1394 27.2139C65.0447 25.7886 58.2866 24.9617 51.163 24.8799V14.316C60.9548 14.4941 70.0143 16.8943 77.4863 20.8671L71.1394 27.2139ZM77.4863 79.118C70.0143 83.0907 60.9548 85.4909 51.163 85.669V75.1052C58.2866 75.0234 65.0447 74.1964 71.1394 72.7711L77.4863 79.118ZM79.1991 80.8308L82.8616 84.4932C74.5633 92.4026 63.4298 97.3519 51.163 97.6405V87.9955C61.6015 87.8129 71.2701 85.1868 79.1991 80.8308ZM90.235 62.1244C85.7313 65.5238 79.3975 68.3372 71.8715 70.2179L68.5538 66.9064C72.3863 62.7099 74.8135 57.209 75.0892 51.1555H97.5626C97.1385 55.1009 94.5643 58.8566 90.235 62.1244Z" fill="#222329"/>
</svg>
