<svg width="12" height="14" viewBox="0 0 12 14" fill="none" xmlns="http://www.w3.org/2000/svg">
<path d="M2.66663 3.83333C2.66663 1.99238 4.15901 0.5 5.99996 0.5C7.84091 0.5 9.33329 1.99238 9.33329 3.83333C9.33329 5.67428 7.84091 7.16667 5.99996 7.16667C4.15901 7.16667 2.66663 5.67428 2.66663 3.83333ZM5.99996 5.83333C7.10453 5.83333 7.99996 4.9379 7.99996 3.83333C7.99996 2.72876 7.10453 1.83333 5.99996 1.83333C4.89539 1.83333 3.99996 2.72876 3.99996 3.83333C3.99996 4.9379 4.89539 5.83333 5.99996 5.83333Z" fill="#1C28FF"/>
<path d="M2.22872 9.39543C1.22853 10.3956 0.666626 11.7522 0.666626 13.1667H1.99996C1.99996 12.1058 2.42139 11.0884 3.17153 10.3382C3.92168 9.58809 4.93909 9.16667 5.99996 9.16667C7.06082 9.16667 8.07824 9.58809 8.82839 10.3382C9.57853 11.0884 9.99996 12.1058 9.99996 13.1667H11.3333C11.3333 11.7522 10.7714 10.3956 9.7712 9.39543C8.771 8.39524 7.41445 7.83333 5.99996 7.83333C4.58547 7.83333 3.22892 8.39524 2.22872 9.39543Z" fill="#1C28FF"/>
</svg>
