<?xml version="1.0" encoding="UTF-8" standalone="no"?>
<!-- Created with Inkscape (http://www.inkscape.org/) -->

<svg
   width="300"
   height="300"
   viewBox="0 0 79.374997 79.375001"
   version="1.1"
   id="svg488"
   inkscape:version="1.2.2 (732a01da63, 2022-12-09)"
   sodipodi:docname="donut_gray.svg"
   xmlns:inkscape="http://www.inkscape.org/namespaces/inkscape"
   xmlns:sodipodi="http://sodipodi.sourceforge.net/DTD/sodipodi-0.dtd"
   xmlns="http://www.w3.org/2000/svg"
   xmlns:svg="http://www.w3.org/2000/svg">
  <sodipodi:namedview
     id="namedview490"
     pagecolor="#ffffff"
     bordercolor="#000000"
     borderopacity="0.25"
     inkscape:showpageshadow="2"
     inkscape:pageopacity="0.0"
     inkscape:pagecheckerboard="0"
     inkscape:deskcolor="#d1d1d1"
     inkscape:document-units="mm"
     showgrid="false"
     inkscape:zoom="1.4324916"
     inkscape:cx="180.10577"
     inkscape:cy="259.33835"
     inkscape:window-width="1920"
     inkscape:window-height="991"
     inkscape:window-x="-9"
     inkscape:window-y="-9"
     inkscape:window-maximized="1"
     inkscape:current-layer="layer1" />
  <defs
     id="defs485" />
  <g
     inkscape:label="Layer 1"
     inkscape:groupmode="layer"
     id="layer1">
    <g
       id="g375"
       transform="matrix(1.0000042,0,0,0.99610793,-13.137198,-102.15773)">
      <path
         d="m 86.185147,142.39962 c 0,18.49675 -14.936,33.49122 -33.36052,33.49122 -18.424446,0 -33.360439,-14.99447 -33.360439,-33.49122 0,-18.49668 14.935993,-33.49125 33.360439,-33.49125 18.42452,0 33.36052,14.99457 33.36052,33.49125 z m -58.71443,0 c 0,14.05758 11.35134,25.45344 25.35391,25.45344 14.00254,0 25.35396,-11.39586 25.35396,-25.45344 0,-14.05758 -11.35142,-25.45334 -25.35396,-25.45334 -14.00257,0 -25.35391,11.39576 -25.35391,25.45334 z"
         fill="#e2e2ea"
         id="path8"
         style="stroke-width:0.264583" />
      <path
         fill-rule="evenodd"
         clip-rule="evenodd"
         d="m 87.909437,142.68934 c 7.9e-4,-0.0966 0.001,-0.19315 0.001,-0.28972 0,-0.0966 -2.7e-4,-0.19315 -0.001,-0.28945 l 4.601373,-0.0373 c 7.9e-4,0.10874 10e-4,0.21775 10e-4,0.32676 0,0.109 -5.3e-4,0.21801 -10e-4,0.32702 z m -0.009,-1.15676 4.600043,-0.11165 c -0.005,-0.21696 -0.0122,-0.43339 -0.0209,-0.64956 l -4.597663,0.18601 c 0.008,0.19129 0.0138,0.38311 0.0185,0.5752 z m -0.046,-1.15041 4.593963,-0.26035 c -0.0122,-0.21749 -0.0262,-0.43471 -0.0418,-0.6514 l -4.589473,0.33549 c 0.014,0.19156 0.0265,0.38391 0.0373,0.57626 z m -0.0836,-1.15041 4.583383,-0.4101 c -0.0193,-0.21617 -0.0402,-0.43207 -0.0627,-0.64744 l -4.575973,0.48498 c 0.0198,0.1905 0.0384,0.38127 0.0553,0.57256 z m -0.12038,-1.1467 4.567503,-0.56012 c -0.0265,-0.21564 -0.0545,-0.43101 -0.0841,-0.64612 l -4.557713,0.635 c 0.0262,0.18997 0.0511,0.38047 0.0744,0.57124 z m -0.1577,-1.14036 4.546873,-0.70961 c -0.0336,-0.21563 -0.0685,-0.43047 -0.10531,-0.64505 l -4.534693,0.78475 c 0.0325,0.18944 0.0635,0.37941 0.0931,0.56991 z m -0.19526,-1.13691 4.521203,-0.85937 c -0.0402,-0.21352 -0.0823,-0.4265 -0.12594,-0.6387 l -4.506383,0.93371 c 0.0386,0.18759 0.0757,0.37571 0.11112,0.56436 z m -0.23204,-1.12924 4.490513,-1.00806 c -0.0474,-0.21246 -0.0963,-0.42413 -0.14711,-0.63553 l -4.473313,1.08241 c 0.0447,0.18653 0.0881,0.37359 0.12991,0.56118 z m -0.26881,-1.11945 4.455053,-1.15597 c -0.0545,-0.21114 -0.11033,-0.42174 -0.16828,-0.63156 l -4.435213,1.22978 c 0.0508,0.18521 0.10055,0.37122 0.14844,0.55775 z m -0.30586,-1.11205 4.414573,-1.30307 c -0.0611,-0.20849 -0.12383,-0.41619 -0.18812,-0.62336 l -4.392613,1.37583 c 0.0569,0.18283 0.11218,0.36645 0.16616,0.5506 z m -0.34211,-1.1004 4.369333,-1.44859 c -0.068,-0.20664 -0.13758,-0.41249 -0.20876,-0.61781 l -4.344983,1.52057 c 0.063,0.18123 0.12435,0.36327 0.18441,0.54583 z m -0.37756,-1.0877 4.319323,-1.59226 c -0.0746,-0.20453 -0.15107,-0.40852 -0.22939,-0.61146 l -4.292603,1.66344 c 0.0691,0.17939 0.13652,0.35957 0.20267,0.54028 z m -0.41381,-1.07606 4.264823,-1.73435 c -0.0812,-0.20161 -0.16431,-0.40216 -0.24871,-0.60192 l -4.235713,1.80446 c 0.0746,0.17647 0.1479,0.35374 0.2196,0.53181 z m -0.44847,-1.06125 4.205563,-1.8743 c -0.0879,-0.19889 -0.17754,-0.39688 -0.268563,-0.59402 l -4.17433,1.94366 c 0.0804,0.17409 0.15955,0.34898 0.23733,0.52466 z m -0.48286,-1.0451 4.14205,-2.01216 c -0.0947,-0.19603 -0.19076,-0.39116 -0.28813,-0.58539 l -4.10845,2.08029 c 0.086,0.17171 0.17092,0.34396 0.25453,0.51726 z m -0.51726,-1.02973 4.07379,-2.14768 c -0.10054,-0.19243 -0.20294,-0.38393 -0.30639,-0.57449 l -4.03834,2.21443 c 0.0915,0.16841 0.18177,0.33766 0.27094,0.50774 z m -0.5506,-1.01169 4.00156,-2.28063 c -0.10689,-0.1891 -0.21537,-0.37721 -0.32517,-0.56433 l -3.96373,2.34612 c 0.0971,0.16541 0.19288,0.3317 0.28734,0.49884 z m -0.58288,-0.99272 3.9251,-2.41091 c -0.11324,-0.18555 -0.22781,-0.37009 -0.3437,-0.55364 l -3.8854,2.4751 c 0.10266,0.16224 0.20399,0.32541 0.304,0.48945 z m -0.61542,-0.97353 3.8444,-2.53849 c -0.1188,-0.18156 -0.23919,-0.36206 -0.36116,-0.5415 l -3.80259,2.60117 c 0.10769,0.1587 0.21431,0.3183 0.31935,0.47882 z m -0.64664,-0.95266 3.75999,-2.66316 c -0.12488,-0.17756 -0.25109,-0.35404 -0.37861,-0.52941 l -3.71608,2.72436 c 0.11272,0.15513 0.22437,0.31118 0.3347,0.46821 z m -0.67707,-0.9308 3.67136,-2.78482 c -0.13044,-0.17341 -0.26247,-0.34571 -0.39555,-0.51687 l -3.62559,2.84454 c 0.11774,0.15139 0.23442,0.30377 0.34978,0.45715 z m -0.70696,-0.90837 3.57901,-2.90343 c -0.13599,-0.16896 -0.27358,-0.33676 -0.41222,-0.5034 l -3.53139,2.96154 c 0.12277,0.1474 0.24421,0.29585 0.3646,0.44529 z m -0.73634,-0.88471 3.48297,-3.01885 c -0.14128,-0.16441 -0.28416,-0.32763 -0.42809,-0.48966 l -3.4335,3.07533 c 0.12753,0.14335 0.25374,0.28773 0.37862,0.43318 z m -0.76438,-0.86014 3.38349,-3.131 c -0.14684,-0.1597 -0.29475,-0.31819 -0.44397,-0.47545 l -3.3319,3.18582 c 0.13176,0.13914 0.26273,0.27937 0.39238,0.42063 z m -0.7919,-0.83476 3.28004,-3.23982 c -0.15161,-0.15481 -0.30454,-0.30837 -0.45879,-0.46067 l -3.22712,3.29293 c 0.13653,0.13475 0.27173,0.27059 0.40587,0.40756 z m -0.81836,-0.80846 3.17342,-3.34518 c -0.15664,-0.14978 -0.31459,-0.29826 -0.47361,-0.44548 l -3.11891,3.39654 c 0.14076,0.13023 0.28046,0.26162 0.4191,0.39412 z m -0.84428,-0.78131 3.06335,-3.44702 c -0.1614,-0.14457 -0.32412,-0.28784 -0.4879,-0.42976 l -3.00699,3.4966 c 0.145,0.12554 0.28866,0.25228 0.43154,0.38018 z m -0.86916,-0.75338 2.94984,-3.54526 c -0.16589,-0.13922 -0.33311,-0.27709 -0.50138,-0.41362 l -2.89216,3.59302 c 0.14896,0.12078 0.29686,0.24272 0.4437,0.36586 z m -0.89297,-0.72443 2.83343,-3.63982 c -0.17066,-0.13377 -0.34211,-0.26617 -0.51488,-0.39719 l -2.77416,3.6857 c 0.15293,0.11589 0.3048,0.23299 0.45561,0.35131 z m -0.91625,-0.69495 2.71383,-3.73063 c -0.17489,-0.12806 -0.35057,-0.25474 -0.52758,-0.38002 l -2.65271,3.77455 c 0.15637,0.11078 0.31195,0.22283 0.46646,0.3361 z m -0.93847,-0.66466 2.59106,-3.81754 c -0.17859,-0.12227 -0.35851,-0.24313 -0.53922,-0.36253 l -2.52862,3.8595 c 0.1598,0.10559 0.31882,0.21243 0.47678,0.32057 z m -0.95912,-0.63331 2.46539,-3.90049 c -0.18283,-0.11644 -0.36645,-0.23145 -0.55139,-0.34499 l -2.40136,3.94047 c 0.16325,0.10036 0.3257,0.20204 0.48736,0.30501 z m -0.97949,-0.60166 2.33707,-3.97936 c -0.18653,-0.11033 -0.37386,-0.21918 -0.56224,-0.32652 l -2.27171,4.01727 c 0.16668,0.0949 0.33231,0.19108 0.49688,0.28861 z m -0.9988,-0.56928 2.20583,-4.05413 c -0.18997,-0.10409 -0.38073,-0.20664 -0.57229,-0.30771 l -2.13942,4.0899 c 0.1696,0.0893 0.33814,0.17995 0.50588,0.27194 z m -1.01626,-0.5357 2.07221,-4.12459 c -0.19341,-0.0979 -0.38788,-0.19436 -0.58314,-0.28922 l -2.00422,4.15825 c 0.17251,0.0838 0.34423,0.16901 0.51515,0.25556 z m -1.03347,-0.5021 1.93596,-4.19074 c -0.19632,-0.0914 -0.3937,-0.18129 -0.59161,-0.26958 l -1.86716,4.22214 c 0.17489,0.078 0.34925,0.1574 0.52281,0.23818 z m -1.05013,-0.468 1.79758,-4.25243 c -0.19923,-0.0848 -0.39899,-0.16801 -0.59981,-0.24964 l -1.72746,4.28157 c 0.17727,0.0721 0.35374,0.1456 0.52969,0.2205 z m -1.06362,-0.43248 1.65708,-4.30956 c -0.20214,-0.0784 -0.40534,-0.15515 -0.60907,-0.2303 l -1.58591,4.33642 c 0.17992,0.0664 0.3593,0.1342 0.5379,0.20344 z m -1.07765,-0.39735 1.51447,-4.36203 c -0.20425,-0.0715 -0.40957,-0.14145 -0.61542,-0.20971 l -1.44277,4.38653 c 0.18177,0.0603 0.36301,0.12202 0.54372,0.18521 z m -1.09141,-0.36172 1.37055,-4.40986 c -0.20638,-0.0646 -0.41328,-0.12758 -0.62098,-0.18889 l -1.29805,4.43191 c 0.18362,0.0542 0.36645,0.10977 0.54848,0.16684 z m -1.1004,-0.32483 1.22476,-4.4528 c -0.20902,-0.058 -0.41884,-0.11425 -0.62918,-0.16883 l -1.15147,4.47249 c 0.186,0.0482 0.37121,0.0979 0.55589,0.14914 z m -1.11178,-0.2885 1.07818,-4.49093 c -0.21061,-0.0509 -0.42148,-0.10009 -0.63315,-0.14761 l -1.00409,4.50813 c 0.18679,0.042 0.37332,0.0855 0.55906,0.13041 z m -1.12157,-0.25183 0.93001,-4.52413 c -0.21166,-0.0438 -0.42359,-0.0859 -0.63632,-0.12634 l -0.85593,4.53887 c 0.18786,0.0357 0.37518,0.0729 0.56224,0.1116 z m -1.12686,-0.21415 0.78158,-4.55234 c -0.21378,-0.037 -0.42783,-0.0722 -0.64267,-0.10576 l -0.70697,4.56467 c 0.18997,0.0296 0.37915,0.0608 0.56806,0.0934 z m -1.13479,-0.17714 0.63235,-4.57565 c -0.21405,-0.0298 -0.42836,-0.0579 -0.64347,-0.0843 l -0.558,4.58541 c 0.19023,0.0233 0.37994,0.0482 0.56912,0.0745 z m -1.14089,-0.13986 0.48313,-4.59396 c -0.21458,-0.0227 -0.42942,-0.0438 -0.64505,-0.063 l -0.40852,4.60124 c 0.19076,0.0171 0.38074,0.0356 0.57044,0.0557 z m -1.1422,-0.10221 0.33416,-4.60729 c -0.2159,-0.0158 -0.43206,-0.0298 -0.64902,-0.0421 l -0.25929,4.61213 c 0.19182,0.0109 0.38338,0.0233 0.57415,0.0373 z m -1.14697,-0.0651 0.18521,-4.61576 c -0.21538,-0.009 -0.43101,-0.0157 -0.64691,-0.0209 l -0.11113,4.61812 c 0.1913,0.005 0.38233,0.0109 0.57283,0.0186 z m -1.14829,-0.0278 0.037,-4.61933 c -0.10822,-8.7e-4 -0.21696,-0.001 -0.32544,-0.001 -0.10874,0 -0.21722,4.5e-4 -0.32544,0.001 l 0.037,4.61933 c 0.0961,-7.6e-4 0.19209,-0.001 0.2884,-0.001 0.0963,0 0.19235,4e-4 0.2884,0.001 z m -1.15227,0.009 -0.11112,-4.61811 c -0.2159,0.005 -0.43154,0.0122 -0.64691,0.0209 l 0.18521,4.61576 c 0.1905,-0.008 0.38153,-0.0139 0.57282,-0.0185 z m -1.14564,0.0463 -0.25956,-4.61213 c -0.21669,0.0123 -0.43286,0.0263 -0.64876,0.0421 l 0.33391,4.60729 c 0.19103,-0.014 0.38259,-0.0264 0.57441,-0.0373 z m -1.14591,0.0837 -0.40852,-4.60123 c -0.21563,0.0193 -0.43048,0.0403 -0.64505,0.063 l 0.48313,4.59398 c 0.1897,-0.0201 0.37967,-0.0387 0.57044,-0.0557 z m -1.14221,0.12108 -0.558,-4.58542 c -0.21511,0.0264 -0.42942,0.0545 -0.64347,0.0843 l 0.63235,4.57563 c 0.18918,-0.0263 0.37889,-0.0512 0.56912,-0.0745 z m -1.13585,0.15822 -0.70697,-4.56465 c -0.21484,0.0335 -0.42889,0.0688 -0.64267,0.10573 l 0.78158,4.55237 c 0.18891,-0.0327 0.37809,-0.0638 0.56806,-0.0935 z m -1.13269,0.19597 -0.85619,-4.53884 c -0.21246,0.0404 -0.42465,0.0825 -0.63605,0.12634 l 0.93001,4.52413 c 0.18679,-0.0387 0.37412,-0.0759 0.56223,-0.11163 z m -1.12474,0.23305 -1.00409,-4.50813 c -0.21167,0.0475 -0.42281,0.0967 -0.63315,0.14761 l 1.07818,4.49091 c 0.18573,-0.045 0.37227,-0.0884 0.55906,-0.13039 z m -1.11495,0.26977 -1.15147,-4.47252 c -0.21061,0.0546 -0.42016,0.11089 -0.62918,0.16886 l 1.22476,4.45278 c 0.18468,-0.0512 0.36989,-0.10089 0.55589,-0.14912 z m -1.10781,0.30713 -1.29805,-4.43191 c -0.2077,0.0613 -0.4146,0.12428 -0.62098,0.18889 l 1.37028,4.40986 c 0.1823,-0.0571 0.36513,-0.11268 0.54875,-0.16684 z m -1.09617,0.34335 -1.44277,-4.38653 c -0.20612,0.0683 -0.41117,0.13816 -0.61569,0.20971 l 1.51474,4.36202 c 0.18071,-0.0632 0.36168,-0.12493 0.54372,-0.1852 z m -1.08347,0.37912 -1.58597,-4.33642 c -0.20383,0.0751 -0.4069,0.15193 -0.60917,0.2303 l 1.65698,4.30956 c 0.17886,-0.0692 0.35824,-0.13706 0.53816,-0.20344 z m -1.07183,0.41539 -1.72767,-4.28154 c -0.20069,0.0816 -0.40056,0.16484 -0.5996,0.24961 l 1.7975,4.25246 c 0.17581,-0.0749 0.3524,-0.14843 0.52977,-0.22053 z m -1.05709,0.45032 -1.86706,-4.22211 c -0.19809,0.0883 -0.39531,0.17814 -0.59168,0.26958 l 1.93598,4.19071 c 0.17349,-0.0808 0.34777,-0.16018 0.52276,-0.23818 z m -1.04111,0.48475 -2.00427,-4.15825 c -0.19526,0.0948 -0.38965,0.19127 -0.583087,0.28922 l 2.072107,4.12459 c 0.17095,-0.0866 0.34272,-0.17174 0.51525,-0.25556 z m -1.02568,0.51932 -2.139289,-4.0899 c -0.191664,0.10104 -0.382429,0.20362 -0.572241,0.30771 l 2.20578,4.05413 c 0.16774,-0.092 0.33634,-0.18264 0.50575,-0.27194 z m -1.00775,0.55261 -2.271708,-4.01727 c -0.188357,0.10734 -0.375735,0.21619 -0.562133,0.32652 l 2.336958,3.97936 c 0.164783,-0.0975 0.330413,-0.19373 0.496883,-0.28861 z m -0.988823,0.58526 -2.40149,-3.94047 c -0.184838,0.11354 -0.368671,0.22855 -0.551471,0.34499 l 2.465414,3.90049 c 0.161634,-0.10298 0.324141,-0.20465 0.487547,-0.30501 z m -0.96975,0.61775 -2.52857,-3.85948 c -0.180817,0.11938 -0.360627,0.24024 -0.539353,0.36251 l 2.591011,3.81754 c 0.158062,-0.10814 0.317024,-0.21498 0.476912,-0.32057 z m -0.948928,0.64913 -2.652766,-3.77455 c -0.176847,0.12528 -0.352637,0.25196 -0.527341,0.38002 l 2.713752,3.73063 c 0.15449,-0.11327 0.309959,-0.22532 0.466355,-0.3361 z m -0.927153,0.67974 -2.773945,-3.6857 c -0.17272,0.13102 -0.344355,0.26342 -0.514853,0.39719 l 2.833423,3.63982 c 0.150813,-0.11832 0.302604,-0.23542 0.455375,-0.35131 z m -0.904822,0.70987 -2.892081,-3.59301 c -0.168302,0.13652 -0.335466,0.2744 -0.501465,0.41362 l 2.949972,3.54526 c 0.146843,-0.12314 0.294719,-0.24508 0.443574,-0.36587 z m -0.881248,0.73907 -3.007069,-3.49661 c -0.163777,0.14193 -0.326364,0.2852 -0.487759,0.42977 l 3.063319,3.44702 c 0.142796,-0.1279 0.286623,-0.25464 0.431509,-0.38018 z m -0.856774,0.76737 -3.118776,-3.39654 c -0.159067,0.14722 -0.316944,0.29573 -0.473604,0.44548 l 3.173386,3.34518 c 0.138589,-0.1325 0.278262,-0.2639 0.418994,-0.39412 z m -0.831532,0.79502 -3.22715,-3.29293 c -0.154199,0.1523 -0.307155,0.30586 -0.458867,0.46067 l 3.280066,3.23982 c 0.134224,-0.13697 0.269531,-0.27281 0.405951,-0.40756 z m -0.805286,0.82169 -3.33211,-3.18582 c -0.149198,0.15726 -0.2971,0.31578 -0.443759,0.47548 l 3.38328,3.131 c 0.129725,-0.14129 0.260588,-0.28152 0.392589,-0.42066 z m -0.778272,0.84759 -3.433551,-3.07533 c -0.143986,0.16203 -0.286702,0.32525 -0.428096,0.48966 l 3.482949,3.01885 c 0.125068,-0.14545 0.251327,-0.28983 0.378698,-0.43318 z m -0.750411,0.8726 -3.53142,-2.96154 c -0.138669,0.16664 -0.276014,0.33446 -0.41201,0.5034 l 3.578993,2.90343 c 0.120279,-0.14944 0.241776,-0.2979 0.364437,-0.44529 z m -0.721935,0.8965 -3.625612,-2.84454 c -0.133244,0.17116 -0.265112,0.34346 -0.395631,0.51687 l 3.671305,2.78482 c 0.115438,-0.15336 0.232093,-0.30576 0.349938,-0.45715 z m -0.692229,0.91974 -3.716047,-2.72436 c -0.127582,0.17537 -0.253762,0.35185 -0.378539,0.52941 l 3.759808,2.66316 c 0.110358,-0.15703 0.221933,-0.31308 0.334778,-0.46821 z m -0.662067,0.94205 -3.802618,-2.60114 c -0.121788,0.17944 -0.242173,0.35994 -0.361104,0.54147 l 3.844423,2.53849 c 0.105172,-0.16052 0.211613,-0.32012 0.319299,-0.47882 z m -0.630846,0.9629 -3.885221,-2.4751 c -0.115993,0.18355 -0.230558,0.36809 -0.343641,0.55367 l 3.925067,2.41088 c 0.09996,-0.16404 0.201242,-0.32721 0.303795,-0.48945 z m -0.599281,0.98333 -3.963829,-2.34612 c -0.109882,0.18712 -0.218308,0.37523 -0.325252,0.56433 l 4.001584,2.28063 c 0.09451,-0.16714 0.190342,-0.33343 0.287497,-0.49884 z m -0.567055,1.00279 -4.038309,-2.21443 c -0.103664,0.19056 -0.205846,0.38206 -0.306494,0.57449 l 4.073922,2.14768 c 0.08895,-0.17008 0.179255,-0.33933 0.270881,-0.50774 z m -0.533612,1.02021 -4.108476,-2.08029 c -0.09758,0.19421 -0.193596,0.38934 -0.288105,0.58537 l 4.142025,2.01218 c 0.08348,-0.1733 0.168328,-0.34581 0.254556,-0.51726 z m -0.500168,1.0377 -4.174358,-1.94369 c -0.09107,0.19714 -0.180578,0.39516 -0.268526,0.59405 l 4.205658,1.8743 c 0.07768,-0.17568 0.156766,-0.35057 0.237226,-0.52466 z m -0.466143,1.0541 -4.235847,-1.80446 c -0.08446,0.19976 -0.167349,0.40031 -0.248629,0.60192 l 4.264819,1.73435 c 0.07181,-0.17807 0.145044,-0.35534 0.219657,-0.53181 z m -0.430795,1.06759 -4.292732,-1.66344 c -0.07807,0.20294 -0.154538,0.40693 -0.229386,0.61146 l 4.319474,1.59226 c 0.06612,-0.18071 0.133667,-0.36089 0.202644,-0.54028 z m -0.39579,1.08215 -4.345009,-1.52057 c -0.07126,0.20532 -0.14089,0.41117 -0.208888,0.61781 l 4.369403,1.44859 c 0.06006,-0.18256 0.12155,-0.3646 0.184494,-0.54583 z m -0.36031,1.09563 -4.392644,-1.37583 c -0.06436,0.20717 -0.127077,0.41487 -0.188148,0.62336 l 4.414608,1.30307 c 0.05392,-0.18415 0.109325,-0.36777 0.166184,-0.5506 z m -0.323559,1.1049 -4.435416,-1.22978 c -0.05773,0.20982 -0.1138,0.42042 -0.168183,0.63156 l 4.455036,1.15597 c 0.04805,-0.18653 0.09755,-0.37254 0.148563,-0.55775 z m -0.28739,1.11602 -4.473371,-1.08241 c -0.05069,0.21113 -0.09971,0.42307 -0.147037,0.63553 l 4.490524,1.00806 c 0.0418,-0.18759 0.08512,-0.37465 0.129884,-0.56118 z m -0.250825,1.12606 -4.506476,-0.93371 c -0.04364,0.2122 -0.08559,0.42518 -0.125846,0.6387 l 4.521144,0.85911 c 0.03556,-0.18865 0.07263,-0.37651 0.111178,-0.5641 z m -0.213307,1.1311 -4.534593,-0.78449 c -0.03682,0.21431 -0.07193,0.42942 -0.105318,0.64505 l 4.54683,0.70961 c 0.0295,-0.1905 0.06054,-0.38047 0.09308,-0.57017 z m -0.176477,1.13929 -4.557773,-0.635 c -0.0297,0.21485 -0.05768,0.43022 -0.08395,0.64612 l 4.567504,0.56012 c 0.02323,-0.19077 0.04797,-0.38127 0.07422,-0.57124 z m -0.139303,1.14538 -4.576028,-0.48498 c -0.02264,0.21537 -0.04357,0.43101 -0.06277,0.64744 l 4.583265,0.4101 c 0.01699,-0.19129 0.03551,-0.38232 0.05554,-0.57256 z m -0.101812,1.14644 -4.589302,-0.33522 c -0.01571,0.21669 -0.02969,0.43391 -0.04193,0.6514 l 4.594113,0.26035 c 0.01085,-0.19262 0.02323,-0.3847 0.03712,-0.57653 z m -0.06482,1.15174 -4.597704,-0.18601 c -0.0087,0.21617 -0.01562,0.4326 -0.02084,0.64956 l 4.600106,0.11165 c 0.0046,-0.19209 0.01077,-0.38391 0.01844,-0.5752 z m -0.0277,1.15252 c -7.67e-4,0.0966 -0.0012,0.19315 -0.0012,0.28972 0,0.0966 3.7e-4,0.19315 0.0012,0.28972 l -4.601302,0.037 c -8.73e-4,-0.10875 -0.0013,-0.21775 -0.0013,-0.32676 0,-0.10901 4.37e-4,-0.21802 0.0013,-0.32676 z m 0.0093,1.15676 -4.600107,0.11165 c 0.0052,0.21696 0.01217,0.43339 0.02084,0.64956 l 4.597707,-0.18601 c -0.0077,-0.19129 -0.01381,-0.38285 -0.01844,-0.5752 z m 0.04614,1.15041 -4.594117,0.26035 c 0.01224,0.21748 0.02622,0.43471 0.04193,0.6514 l 4.589307,-0.33523 c -0.01392,-0.19182 -0.02627,-0.38391 -0.03712,-0.57652 z m 0.0834,1.15041 -4.583271,0.4101 c 0.0192,0.21643 0.04013,0.43206 0.06277,0.64744 l 4.576035,-0.48499 c -0.02003,-0.19023 -0.03855,-0.38126 -0.05554,-0.57255 z m 0.120623,1.1467 -4.567512,0.56012 c 0.02626,0.2159 0.05425,0.43127 0.08395,0.64611 l 4.557779,-0.635 c -0.02625,-0.18997 -0.05101,-0.3802 -0.07422,-0.57123 z m 0.157586,1.14035 -4.546812,0.70962 c 0.03339,0.21563 0.0685,0.43074 0.105318,0.64505 l 4.534574,-0.78449 c -0.03254,-0.18971 -0.06355,-0.37968 -0.09308,-0.57018 z m 0.19521,1.13718 -4.521129,0.8591 c 0.04026,0.21352 0.08221,0.42651 0.125849,0.63871 l 4.506484,-0.93372 c -0.03855,-0.18732 -0.07562,-0.37544 -0.111204,-0.56409 z m 0.232145,1.12898 -4.490535,1.00806 c 0.04733,0.21246 0.09635,0.42439 0.147037,0.63553 l 4.473382,-1.08241 c -0.04479,-0.18653 -0.08808,-0.37359 -0.129884,-0.56118 z m 0.268711,1.11945 -4.455046,1.15597 c 0.05439,0.21113 0.11045,0.42174 0.168185,0.63156 l 4.435398,-1.22952 c -0.05098,-0.18548 -0.100515,-0.37148 -0.148537,-0.55801 z m 0.305938,1.11205 -4.414616,1.30307 c 0.06107,0.20849 0.123791,0.41645 0.188148,0.62336 l 4.392626,-1.37557 c -0.05683,-0.18309 -0.112236,-0.36671 -0.166158,-0.55086 z m 0.341974,1.1004 -4.369383,1.44859 c 0.068,0.20664 0.137629,0.41275 0.208886,0.6178 l 4.345017,-1.52056 c -0.06294,-0.18124 -0.12446,-0.36327 -0.18452,-0.54583 z m 0.377666,1.0877 -4.319482,1.59226 c 0.07485,0.20452 0.151321,0.40852 0.229394,0.61145 l 4.292706,-1.66343 c -0.06895,-0.17939 -0.136499,-0.35957 -0.202618,-0.54028 z m 0.413782,1.07606 -4.264819,1.73434 c 0.08128,0.20162 0.164174,0.40217 0.248629,0.6022 l 4.235847,-1.80473 c -0.07461,-0.17647 -0.147849,-0.35375 -0.219657,-0.53181 z m 0.448548,1.06124 -4.205632,1.87431 c 0.08795,0.19897 0.177456,0.39688 0.268526,0.59399 l 4.174358,-1.94336 c -0.08046,-0.17436 -0.159544,-0.34925 -0.237252,-0.52494 z m 0.482838,1.04511 -4.141999,2.01215 c 0.09448,0.19606 0.190526,0.39132 0.288105,0.58553 l 4.108476,-2.08042 c -0.08623,-0.17145 -0.17108,-0.34396 -0.254582,-0.51726 z m 0.517313,1.02976 -4.073922,2.14762 c 0.100648,0.19262 0.20283,0.38391 0.306494,0.57467 l 4.038309,-2.21456 c -0.09163,-0.16827 -0.181928,-0.33761 -0.270881,-0.50773 z m 0.550439,1.01176 -4.001584,2.28071 c 0.106944,0.18891 0.21537,0.37703 0.325252,0.56436 l 3.963829,-2.34633 c -0.09716,-0.16536 -0.192987,-0.33152 -0.287497,-0.49874 z m 0.582983,0.99272 -3.925067,2.41088 c 0.113083,0.18548 0.227648,0.37015 0.343641,0.55351 l 3.885247,-2.47491 c -0.102579,-0.16219 -0.203861,-0.32544 -0.303821,-0.48948 z m 0.615342,0.9734 -3.844423,2.53868 c 0.118931,0.1815 0.239316,0.36195 0.361104,0.54134 l 3.802618,-2.60112 c -0.107686,-0.15875 -0.214127,-0.3183 -0.319299,-0.4789 z m 0.646588,0.95277 -3.759808,2.66329 c 0.124777,0.17754 0.250984,0.35401 0.378539,0.52917 l 3.716047,-2.72415 c -0.112819,-0.15531 -0.22442,-0.31142 -0.334778,-0.46831 z m 0.677069,0.9308 -3.671305,2.78474 c 0.130519,0.17357 0.262387,0.34581 0.395631,0.517 l 3.625612,-2.84454 c -0.117845,-0.15134 -0.2345,-0.30374 -0.349938,-0.4572 z m 0.707126,0.90831 -3.578993,2.90354 c 0.135996,0.16881 0.273341,0.33682 0.41201,0.50324 l 3.53142,-2.96148 c -0.122661,-0.14737 -0.244158,-0.29581 -0.364437,-0.4453 z m 0.73615,0.88477 -3.482949,3.0189 c 0.141394,0.1643 0.28411,0.32755 0.428096,0.48974 l 3.433551,-3.07552 c -0.127371,-0.1434 -0.25363,-0.2876 -0.378698,-0.43312 z m 0.764381,0.86016 -3.38328,3.13108 c 0.146659,0.15954 0.294587,0.31803 0.443759,0.47546 l 3.33211,-3.18585 c -0.131974,-0.13917 -0.262864,-0.2794 -0.392589,-0.42069 z m 0.791924,0.83476 -3.280066,3.23983 c 0.151712,0.15478 0.304668,0.30823 0.458867,0.46063 l 3.22715,-3.293 c -0.13642,-0.13467 -0.271727,-0.2704 -0.405951,-0.40746 z m 0.818489,0.8083 -3.173386,3.3454 c 0.15666,0.14975 0.314537,0.29818 0.473604,0.44529 l 3.118776,-3.39646 c -0.140732,-0.13017 -0.280405,-0.26167 -0.418994,-0.39423 z m 0.844259,0.78132 -3.063319,3.44726 c 0.161395,0.14446 0.324008,0.2876 0.487759,0.42968 l 3.007069,-3.49673 c -0.144886,-0.12542 -0.288713,-0.25215 -0.431509,-0.38021 z m 0.869183,0.75353 -2.949972,3.54515 c 0.165999,0.13918 0.333163,0.27729 0.501465,0.41381 l 2.892081,-3.59304 c -0.148855,-0.12091 -0.296731,-0.24289 -0.443574,-0.36592 z m 0.893021,0.72443 -2.833423,3.63987 c 0.170498,0.13362 0.342133,0.26618 0.514853,0.39714 l 2.773945,-3.68564 c -0.152771,-0.11589 -0.304562,-0.2331 -0.455375,-0.35137 z m 0.916173,0.69506 -2.713725,3.73036 c 0.174677,0.12833 0.350467,0.2548 0.527314,0.38021 L 32.6204,171.2002 c -0.156396,-0.11086 -0.311865,-0.22278 -0.466355,-0.33602 z m 0.938371,0.66464 -2.591011,3.8174 c 0.178726,0.12224 0.358536,0.24316 0.539353,0.36248 l 2.52857,-3.85947 c -0.159888,-0.10557 -0.31885,-0.21246 -0.476912,-0.32041 z m 0.959115,0.63314 -2.465414,3.90049 c 0.182827,0.11642 0.366633,0.23151 0.551471,0.34502 l 2.40149,-3.94044 c -0.163406,-0.10028 -0.325913,-0.20214 -0.487547,-0.30507 z m 0.979487,0.60167 -2.336958,3.97933 c 0.186398,0.11033 0.373776,0.21934 0.562133,0.32649 l 2.271704,-4.01716 c -0.16647,-0.095 -0.332096,-0.19103 -0.496879,-0.28866 z m 0.998879,0.56938 -2.205776,4.05394 c 0.189812,0.10425 0.380551,0.20691 0.572241,0.30772 l 2.139285,-4.08967 c -0.16941,-0.0894 -0.33801,-0.18018 -0.50575,-0.27199 z m 1.01618,0.53552 -2.072129,4.12459 c 0.193463,0.0982 0.387819,0.19446 0.583089,0.28945 l 2.00427,-4.15846 c -0.17254,-0.0836 -0.34428,-0.1688 -0.51523,-0.25558 z m 1.03357,0.50217 -1.93595,4.19074 c 0.19634,0.0915 0.39359,0.18124 0.59168,0.26961 l 1.86706,-4.22222 c -0.17502,-0.0778 -0.34927,-0.15716 -0.52279,-0.23813 z m 1.05008,0.46805 -1.7975,4.25239 c 0.19905,0.0849 0.39891,0.16801 0.59963,0.24976 l 1.72767,-4.28175 c -0.1774,-0.072 -0.35396,-0.14552 -0.5298,-0.2204 z m 1.06347,0.4326 -1.65701,4.30953 c 0.20227,0.0783 0.40534,0.15505 0.60918,0.23019 l 1.58599,-4.33652 c -0.17992,-0.0661 -0.3593,-0.13415 -0.53816,-0.2032 z m 1.07791,0.39714 -1.51474,4.36218 c 0.20452,0.0714 0.40957,0.14129 0.61569,0.20955 l 1.44277,-4.38653 c -0.18204,-0.0601 -0.36327,-0.12197 -0.54372,-0.1852 z m 1.09114,0.36168 -1.37028,4.41008 c 0.20638,0.0645 0.41328,0.12753 0.62098,0.18891 l 1.29778,-4.43204 c -0.18335,-0.0542 -0.36618,-0.1098 -0.54848,-0.16695 z m 1.10067,0.32491 -1.22502,4.45294 c 0.20928,0.0579 0.41883,0.11403 0.62918,0.1688 l 1.15173,-4.47252 c -0.186,-0.0481 -0.37121,-0.0979 -0.55589,-0.14922 z m 1.11178,0.28866 -1.07818,4.49077 c 0.21034,0.0511 0.42148,0.10028 0.63288,0.14764 l 1.00436,-4.50823 c -0.18706,-0.0418 -0.37333,-0.0852 -0.55906,-0.13018 z m 1.12157,0.25162 -0.93001,4.52411 c 0.2114,0.0439 0.42359,0.086 0.63605,0.12647 l 0.85593,-4.53893 c -0.18785,-0.0357 -0.37518,-0.0728 -0.56197,-0.11165 z m 1.12686,0.21431 -0.78158,4.55242 c 0.21352,0.0368 0.42783,0.072 0.64267,0.10557 l 0.7067,-4.56459 c -0.1897,-0.0296 -0.37888,-0.0608 -0.56779,-0.0934 z m 1.13479,0.17701 -0.63262,4.5757 c 0.21405,0.0299 0.42863,0.058 0.64374,0.0844 l 0.55774,-4.58549 c -0.18997,-0.0233 -0.37968,-0.0481 -0.56886,-0.0746 z m 1.14089,0.13996 -0.48313,4.59396 c 0.21457,0.0228 0.42942,0.0437 0.64479,0.063 l 0.40851,-4.6011 c -0.1905,-0.0172 -0.38073,-0.0357 -0.57017,-0.0558 z m 1.14194,0.10213 -0.33391,4.60746 c 0.2159,0.0156 0.43207,0.0296 0.64876,0.0421 l 0.25956,-4.61221 c -0.19182,-0.0109 -0.38338,-0.0233 -0.57441,-0.0373 z m 1.14723,0.0651 -0.18521,4.61565 c 0.21511,0.009 0.43075,0.0159 0.64691,0.0212 l 0.11112,-4.6183 c -0.19129,-0.005 -0.38232,-0.0109 -0.57282,-0.0185 z m 1.14803,0.0278 -0.037,4.61936 c 0.10848,0.001 0.21696,0.001 0.3257,0.001 0.10848,0 0.21696,-2.6e-4 0.32544,-0.001 l -0.037,-4.61936 c -0.0961,7.9e-4 -0.19209,0.001 -0.2884,0.001 -0.0963,0 -0.19262,-5.3e-4 -0.28866,-0.001 z m 1.15226,-0.009 0.11112,4.6183 c 0.21617,-0.005 0.4318,-0.0124 0.64718,-0.0212 l -0.18521,-4.61565 c -0.19077,0.008 -0.38153,0.014 -0.57309,0.0185 z m 1.14591,-0.0463 0.25929,4.61221 c 0.2167,-0.0124 0.43312,-0.0265 0.64902,-0.0421 l -0.33416,-4.60746 c -0.19103,0.014 -0.38233,0.0265 -0.57415,0.0373 z m 1.14591,-0.0836 0.40852,4.6011 c 0.21537,-0.0193 0.43047,-0.0402 0.64505,-0.063 l -0.48313,-4.59396 c -0.1897,0.0201 -0.37994,0.0386 -0.57044,0.0558 z m 1.14221,-0.12118 0.558,4.58549 c 0.21484,-0.0264 0.42942,-0.0545 0.64347,-0.0844 l -0.63235,-4.5757 c -0.18918,0.0265 -0.37889,0.0513 -0.56912,0.0746 z m 1.13585,-0.15822 0.70697,4.56459 c 0.21458,-0.0336 0.42889,-0.0688 0.64241,-0.10557 l -0.78158,-4.55242 c -0.18865,0.0326 -0.37809,0.0638 -0.5678,0.0934 z m 1.13268,-0.19606 0.85593,4.53893 c 0.21273,-0.0405 0.42466,-0.0825 0.63606,-0.12647 l -0.93001,-4.52411 c -0.1868,0.0389 -0.37412,0.0759 -0.56198,0.11165 z m 1.12448,-0.23283 1.00436,4.50797 c 0.21167,-0.0474 0.42254,-0.0966 0.63288,-0.14764 l -1.07791,-4.49077 c -0.18574,0.045 -0.37227,0.0884 -0.55933,0.13044 z m 1.11522,-0.26988 1.15147,4.47252 c 0.21034,-0.0548 0.42016,-0.11086 0.62918,-0.1688 l -1.22502,-4.45294 c -0.18442,0.0513 -0.36989,0.10107 -0.55563,0.14922 z m 1.10781,-0.30718 1.29805,4.43204 c 0.2077,-0.0614 0.4146,-0.12436 0.62098,-0.18891 l -1.37055,-4.40981 c -0.18203,0.0569 -0.36512,0.11244 -0.54848,0.16668 z m 1.09617,-0.34343 1.44277,4.38653 c 0.20585,-0.0683 0.41117,-0.13811 0.61542,-0.20955 l -1.51447,-4.36218 c -0.18071,0.0632 -0.36195,0.12514 -0.54372,0.1852 z m 1.08347,-0.37914 1.58591,4.33652 c 0.20373,-0.0751 0.40693,-0.15187 0.60907,-0.23019 l -1.65708,-4.30953 c -0.1786,0.0691 -0.35798,0.13705 -0.5379,0.2032 z m 1.07183,-0.4154 1.72746,4.28175 c 0.20082,-0.0817 0.40058,-0.16483 0.59981,-0.24976 l -1.79758,-4.25239 c -0.17595,0.0749 -0.35242,0.14843 -0.52969,0.2204 z m 1.05701,-0.45032 1.86716,4.22222 c 0.19791,-0.0884 0.39529,-0.17806 0.59161,-0.26961 l -1.93596,-4.19074 c -0.17356,0.081 -0.34792,0.16034 -0.52281,0.23813 z m 1.04113,-0.48472 2.00422,4.15846 c 0.19526,-0.095 0.38973,-0.19129 0.58314,-0.28945 l -2.07221,-4.12459 c -0.17092,0.0868 -0.34264,0.17197 -0.51515,0.25558 z m 1.02553,-0.51911 2.13942,4.08967 c 0.19156,-0.10081 0.38232,-0.20347 0.57229,-0.30772 l -2.20583,-4.05394 c -0.16774,0.0918 -0.33628,0.18256 -0.50588,0.27199 z m 1.0078,-0.55271 2.27171,4.01716 c 0.18838,-0.10715 0.37571,-0.21616 0.56224,-0.32649 l -2.33707,-3.97933 c -0.16457,0.0976 -0.33046,0.19367 -0.49688,0.28866 z m 0.98901,-0.58526 2.40136,3.94044 c 0.18494,-0.11351 0.36856,-0.2286 0.55139,-0.34502 l -2.46539,-3.90049 c -0.16166,0.10293 -0.32411,0.20479 -0.48736,0.30507 z m 0.9697,-0.6178 2.52862,3.85947 c 0.18071,-0.11932 0.36063,-0.24024 0.53922,-0.36248 l -2.59106,-3.8174 c -0.15796,0.10795 -0.31698,0.21484 -0.47678,0.32041 z m 0.94879,-0.64903 2.65271,3.77455 c 0.17701,-0.12541 0.35269,-0.25188 0.52758,-0.38021 l -2.71383,-3.73062 c -0.15451,0.1135 -0.31009,0.22542 -0.46646,0.33628 z m 0.9271,-0.67971 2.77416,3.68564 c 0.17277,-0.13096 0.34422,-0.26352 0.51488,-0.39714 l -2.83343,-3.63987 c -0.15081,0.11827 -0.30268,0.23548 -0.45561,0.35137 z m 0.90488,-0.70988 2.89216,3.59304 c 0.16827,-0.13652 0.33549,-0.27463 0.50138,-0.41381 l -2.94984,-3.54515 c -0.14684,0.12303 -0.29474,0.24501 -0.4437,0.36592 z m 0.88132,-0.73924 3.00699,3.49673 c 0.16378,-0.14208 0.3265,-0.28522 0.4879,-0.42968 l -3.06335,-3.44726 c -0.14288,0.12806 -0.28654,0.25479 -0.43154,0.38021 z m 0.85672,-0.7673 3.11891,3.39646 c 0.15902,-0.14711 0.31697,-0.29554 0.47361,-0.44529 l -3.17342,-3.3454 c -0.13864,0.13256 -0.27834,0.26406 -0.4191,0.39423 z m 0.83159,-0.79507 3.22712,3.293 c 0.15425,-0.1524 0.30718,-0.30585 0.45879,-0.46063 l -3.28004,-3.23983 c -0.13414,0.13706 -0.26934,0.27279 -0.40587,0.40746 z m 0.80539,-0.82153 3.3319,3.18585 c 0.14922,-0.15743 0.29713,-0.31592 0.44397,-0.47546 l -3.38349,-3.13108 c -0.12965,0.14129 -0.26062,0.28152 -0.39238,0.42069 z m 0.77814,-0.84773 3.4335,3.07552 c 0.1442,-0.16219 0.28681,-0.32544 0.42809,-0.48974 l -3.48297,-3.0189 c -0.12488,0.14552 -0.25109,0.28972 -0.37862,0.43312 z m 0.75036,-0.87259 3.53139,2.96148 c 0.13864,-0.16642 0.27623,-0.33443 0.41222,-0.50324 l -3.57901,-2.90354 c -0.12039,0.14949 -0.24183,0.29793 -0.3646,0.4453 z m 0.72178,-0.89641 3.62559,2.84454 c 0.13308,-0.17119 0.26511,-0.34343 0.39555,-0.517 l -3.67136,-2.78474 c -0.11536,0.15346 -0.23204,0.30586 -0.34978,0.4572 z m 0.69215,-0.91969 3.71608,2.72415 c 0.12752,-0.17516 0.25373,-0.35163 0.37861,-0.52917 l -3.75999,-2.66329 c -0.11033,0.15689 -0.22198,0.313 -0.3347,0.46831 z m 0.66199,-0.94218 3.80259,2.60112 c 0.12197,-0.17939 0.24236,-0.35984 0.36116,-0.54134 l -3.8444,-2.53868 c -0.10504,0.1606 -0.21166,0.32015 -0.31935,0.4789 z m 0.63077,-0.96282 3.8854,2.47491 c 0.11589,-0.18336 0.23046,-0.36803 0.3437,-0.55351 l -3.9251,-2.41088 c -0.10001,0.16404 -0.20134,0.32729 -0.304,0.48948 z m 0.59954,-0.98346 3.96373,2.34633 c 0.1098,-0.18733 0.21828,-0.37545 0.32517,-0.56436 l -4.00156,-2.28071 c -0.0945,0.16722 -0.19024,0.33338 -0.28734,0.49874 z m 0.567,-1.00277 4.03834,2.21456 c 0.10345,-0.19076 0.20585,-0.38205 0.30639,-0.57467 l -4.07379,-2.14762 c -0.0892,0.17012 -0.17939,0.33946 -0.27094,0.50773 z m 0.53367,-1.02023 4.10845,2.08042 c 0.0974,-0.19421 0.19341,-0.38947 0.28813,-0.58553 l -4.14205,-2.01215 c -0.0836,0.1733 -0.16854,0.34581 -0.25453,0.51726 z m 0.50006,-1.03743 4.17433,1.94336 c 0.091,-0.19711 0.180713,-0.39502 0.268563,-0.59399 l -4.205563,-1.87431 c -0.0778,0.17569 -0.15689,0.35058 -0.23733,0.52494 z m 0.4662,-1.05437 4.235713,1.80473 c 0.0844,-0.20003 0.16748,-0.40058 0.24871,-0.60193 l -4.264823,-1.73461 c -0.0717,0.17806 -0.14499,0.35534 -0.2196,0.53181 z m 0.43074,-1.06759 4.292603,1.66343 c 0.0783,-0.20293 0.15478,-0.40693 0.22939,-0.61145 l -4.319323,-1.59226 c -0.0661,0.18071 -0.13361,0.36089 -0.20267,0.54028 z m 0.39582,-1.08215 4.344983,1.52056 c 0.0712,-0.20505 0.14076,-0.41116 0.20876,-0.6178 l -4.369333,-1.44859 c -0.0601,0.18256 -0.12144,0.36459 -0.18441,0.54583 z m 0.36036,-1.09537 4.392613,1.37557 c 0.0643,-0.20691 0.127,-0.41487 0.18812,-0.62336 l -4.414573,-1.30307 c -0.054,0.18441 -0.10928,0.36777 -0.16616,0.55086 z m 0.32358,-1.1049 4.435213,1.22952 c 0.0579,-0.20982 0.11378,-0.42043 0.16828,-0.63156 l -4.455053,-1.15597 c -0.0479,0.18653 -0.0976,0.37253 -0.14844,0.55801 z m 0.28734,-1.11601 4.473313,1.08214 c 0.0508,-0.21114 0.0998,-0.42307 0.14711,-0.63553 l -4.490513,-1.00806 c -0.0418,0.18759 -0.0852,0.37465 -0.12991,0.56145 z m 0.25083,-1.12607 4.506383,0.93345 c 0.0437,-0.2122 0.0857,-0.42519 0.12594,-0.63844 l -4.521203,-0.85937 c -0.0354,0.18865 -0.0728,0.37677 -0.11112,0.56436 z m 0.21325,-1.13136 4.534693,0.78449 c 0.0368,-0.21431 0.0717,-0.42942 0.10531,-0.64505 l -4.546873,-0.70962 c -0.0296,0.1905 -0.0606,0.38074 -0.0931,0.57018 z m 0.17648,-1.1393 4.557713,0.635 c 0.0296,-0.21484 0.0577,-0.43021 0.0839,-0.64611 l -4.567503,-0.56012 c -0.023,0.19103 -0.0479,0.38126 -0.0741,0.57123 z m 0.13917,-1.14511 4.576233,0.48472 c 0.0225,-0.21511 0.0434,-0.43101 0.0627,-0.64744 l -4.583383,-0.4101 c -0.0169,0.19129 -0.0355,0.38232 -0.0556,0.57282 z m 0.10186,-1.14671 4.589473,0.3355 c 0.0156,-0.21696 0.0296,-0.43392 0.0418,-0.65167 L 87.854177,144.417 c -0.0109,0.19261 -0.0233,0.3847 -0.0373,0.57652 z m 0.0648,-1.15146 4.597663,0.18574 c 0.009,-0.2159 0.0156,-0.4326 0.0209,-0.64956 l -4.600043,-0.11139 c -0.005,0.19209 -0.0109,0.38365 -0.0185,0.57521 z"
         fill="#e2e2ea"
         id="path12"
         style="stroke-width:0.264583" />
    </g>
  </g>
</svg>
