<svg width="282" height="28" viewBox="0 0 282 28" fill="none" xmlns="http://www.w3.org/2000/svg">
<path fill-rule="evenodd" clip-rule="evenodd" d="M282 14.7431V0H279.663L252.074 28H268.937L282 14.7431ZM247.932 0H264.794L237.205 28H220.342L247.932 0ZM233.063 0H216.2L188.611 28H205.473L233.063 0ZM184.468 0H201.331L173.742 28H156.879L184.468 0ZM169.599 0H152.737L125.147 28H142.01L169.599 0ZM121.005 0H137.868L110.278 28H93.4155L121.005 0ZM106.136 0H89.2735L61.684 28H78.5467L106.136 0ZM57.541 0H74.4047L46.8152 28H29.9515L57.541 0ZM42.6722 0H25.8087L0 26.1927V28H15.0827L42.6722 0ZM0 0H10.9399L0 11.1027V0Z" fill="#222329"/>
</svg>
